<?xml version="1.0" encoding="UTF-8" standalone="no"?>
<!DOCTYPE svg PUBLIC "-//W3C//DTD SVG 1.1//EN" "http://www.w3.org/Graphics/SVG/1.1/DTD/svg11.dtd">
<svg xmlns="http://www.w3.org/2000/svg" xmlns:xlink="http://www.w3.org/1999/xlink" version="1.1" width="2834.65pt" height="2834.65pt" viewBox="0 0 2834.65 2834.65">
<g enable-background="new">
<g id="Layer-1" data-name="Layer">
<clipPath id="cp0">
<path transform="matrix(1,0,0,-1,0,2834.65)" d="M 0 2834.65 L 2834.65 2834.65 L 2834.65 0 L 0 0 Z "/>
</clipPath>
<g clip-path="url(#cp0)">
<path transform="matrix(1,0,0,-1,2312.291,592.4126)" d="M 0 0 C 6.982 -6.337 20.76 -5.88 23.757 -16.2 C 23.049 -26.227 20.584 -35.495 18.36 -41.041 C 12.484 -39.118 10.727 -39.489 4.32 -37.802 C 1.068 -32.7 2.795 -22.115 2.158 -17.281 C -7.075 -19.529 -14.792 -24.368 -23.762 -18.36 C -29.271 -4.421 -20.461 9.101 -21.604 21.599 C -22.966 36.505 -32.212 46.578 -46.441 52.919 C -74.201 55.479 -83.54 39.617 -101.522 32.398 C -108.809 33.031 -113.458 36.303 -115.563 42.119 C -110.795 54.633 -97.766 58.882 -87.482 65.878 C -77.493 65.524 -68.546 70.422 -58.32 70.198 C -22.619 69.416 4.609 32.28 0 0 " fill="#231f20" fill-rule="evenodd"/>
<path transform="matrix(1,0,0,-1,1821.9707,587.01419)" d="M 0 0 C -4.97 .921 -8.31 -.151 -11.883 1.081 C -13.855 -.547 -14.422 -3.579 -16.202 -5.398 C -20.482 -3.922 -24.047 -1.727 -28.08 0 C -49.97 -2.709 -74.043 -36.028 -77.761 -60.479 C -78.74 -66.917 -76.996 -72.252 -75.604 -76.68 C -69.771 -83.447 -61.102 -90.692 -58.319 -97.2 C -64.564 -100.881 -77.664 -96.425 -79.923 -96.119 C -95.418 -82.435 -111.006 -64.136 -103.68 -36.718 C -96.723 -24.958 -92.526 -10.433 -83.162 -1.079 C -67.311 4.127 -52.668 22.268 -34.563 15.12 C -19.705 14.032 -1.252 13.098 0 0 " fill="#231f20" fill-rule="evenodd"/>
<path transform="matrix(1,0,0,-1,2171.8907,900.21438)" d="M 0 0 C 1.01 -34.1 26.234 -65.505 63.721 -60.479 C 101.725 -55.384 134.824 1.068 128.518 50.761 C 124.541 82.109 95.748 103.818 60.477 98.281 C 26.666 92.971 -1.346 45.374 0 0 M 64.797 141.482 C 139.561 148.806 185.603 84.098 169.559 4.32 C 161.951 -33.495 130.57 -82.213 93.959 -97.198 C 54.927 -113.177 .746 -96.884 -20.523 -70.198 C -38.057 -48.199 -44.764 -15.142 -43.203 14.041 C -40.47 65.039 -13.083 108.529 20.518 128.521 C 32.58 135.694 47.843 139.818 64.797 141.482 " fill="#231f20" fill-rule="evenodd"/>
<path transform="matrix(1,0,0,-1,1894.3272,904.5342)" d="M 0 0 C -35.411 -10.576 -88.132 4.322 -61.559 38.88 C -34.95 48.217 7.699 42.84 41.04 43.201 C 49.456 36.419 56.122 32.68 56.162 21.601 C 56.202 9.892 46.67 9.334 44.284 0 C 42.231 -8.024 45.304 -17.218 45.36 -24.84 C 45.638 -61.088 32.493 -73.367 10.802 -85.32 C -1.433 -92.061 -16.862 -97.756 -34.559 -98.279 C -80.622 -99.644 -108.339 -75.678 -124.198 -54 C -139.526 -33.044 -150.908 -6.603 -147.96 34.561 C -143.53 96.385 -93.384 133.414 -34.559 142.561 C -.958 147.784 41.216 137.689 39.964 110.16 C 39.753 105.574 36.958 96.231 28.081 92.88 C 11.461 86.607 -2.487 99.697 -16.198 100.441 C -35.016 101.461 -53.601 91.187 -65.878 84.241 C -86.647 72.492 -104.757 54.391 -104.757 21.601 C -104.757 -33.638 -45.246 -79.273 0 -37.799 Z " fill="#231f20" fill-rule="evenodd"/>
<path transform="matrix(1,0,0,-1,2040.1289,917.49368)" d="M 0 0 C 11.201 26.237 19.438 55.443 28.081 84.239 C 38.417 100.274 67.943 100.608 70.198 75.599 C 71.42 62.073 62.846 43.915 58.32 30.239 C 53.859 16.761 48.604 4.474 43.198 -10.8 C 34.638 -35 24.605 -87.954 -3.238 -84.239 C -20.975 -81.875 -25.154 -56.907 -31.32 -41.041 C -40.293 -17.938 -53.09 12.533 -64.802 36.721 C -75.366 58.551 -95.563 95.594 -51.838 95.041 C -21.665 76.254 -18.119 30.843 0 0 " fill="#231f20" fill-rule="evenodd"/>
<path transform="matrix(1,0,0,-1,654.4893,918.5747)" d="M 0 0 C 11.786 1.619 7.2 20.568 0 23.761 C -4.592 14.845 -.93 10.692 0 0 M 11.881 48.602 C 15.57 41.219 27.976 21.977 28.081 11.881 C 28.235 -3.192 15.064 -9.519 6.479 -19.439 C -17.185 -20.784 -24.891 -6.17 -29.16 11.881 C -31.351 33.871 -19.38 41.702 -6.479 48.602 C .956 49.425 4.445 49.425 11.881 48.602 " fill="#231f20" fill-rule="evenodd"/>
<path transform="matrix(1,0,0,-1,750.6108,875.3745)" d="M 0 0 C -.996 -1.885 -3.377 -2.384 -6.482 -2.16 C -4.856 -.626 -1.822 1.839 0 0 " fill="#231f20" fill-rule="evenodd"/>
<path transform="matrix(1,0,0,-1,657.7305,1000.6538)" d="M 0 0 C 10.575 1.998 6.436 21.593 2.16 27 C -3.224 21.143 -2.854 8.475 0 0 M 2.16 49.681 C 32.249 50.206 33.115 -12.808 6.479 -20.52 C -25.917 -18.129 -37.239 17.288 -20.521 43.201 C -13.164 45.565 -6.572 48.691 2.16 49.681 " fill="#231f20" fill-rule="evenodd"/>
<path transform="matrix(1,0,0,-1,2384.6514,1003.89456)" d="M 0 0 C 13.161 -28.129 28.063 -68.014 3.239 -96.12 C -5.015 -101.544 -13.21 -107.029 -21.604 -112.32 C -44.077 -118.743 -73.218 -116.932 -81 -97.198 C -75.274 -89.915 -65.013 -94.366 -52.923 -92.878 C -30.472 -84.01 -14.827 -68.335 -9.721 -42.12 C -6.117 -20.661 -21.463 -16.078 -28.081 -2.16 C -24.368 .4 -19.916 .4 -16.202 -2.16 C -16.62 10.305 -5.792 .176 0 0 " fill="#231f20" fill-rule="evenodd"/>
<path transform="matrix(1,0,0,-1,660.9688,1090.2935)" d="M 0 0 L 8.642 0 C 13.3 7.462 16.893 27.815 4.32 29.16 C -2.841 22.252 -4.739 7.82 0 0 M 7.561 57.239 C 11.16 53.279 15.12 49.678 16.201 43.201 C 46.035 29.109 33.825 -20.977 -1.079 -19.439 C -5.396 -19.25 -7.016 -16.896 -11.88 -16.2 C -13.966 -6.407 -22.603 -3.164 -25.919 5.399 C -30.724 31.015 -17.004 40.92 -7.559 55.079 C -3.096 56.375 .919 58.12 7.561 57.239 " fill="#231f20" fill-rule="evenodd"/>
<path transform="matrix(1,0,0,-1,664.21,1176.6939)" d="M 0 0 C 10.622 3.771 10.028 37.043 -5.401 34.561 C -7.82 22.557 -7.075 5.948 0 0 M -6.479 54 C -5.275 56.168 1.872 55.239 3.239 54 C 15.078 46.039 25.203 36.362 28.079 19.439 C 26.227 1.494 18.936 -11.015 5.401 -17.279 C -15.671 -18.189 -27.224 -9.583 -32.401 5.4 C -35.029 32.869 -24.207 46.887 -6.479 54 " fill="#231f20" fill-rule="evenodd"/>
<path transform="matrix(1,0,0,-1,668.5298,1260.9331)" d="M 0 0 C 8.908 6.179 9.463 36.91 -4.32 34.559 C -6.528 26.897 -11.241 5.256 0 0 M 7.559 54 C 16.216 41.625 29.65 35.141 30.239 17.279 C 30.806 .108 13.091 -19.151 -6.48 -17.281 C -18.444 -16.137 -28.365 -2.821 -30.241 9.719 C -32.537 25.075 -21.997 37.086 -21.599 48.6 C -11.637 50.157 -6.234 56.272 7.559 54 " fill="#231f20" fill-rule="evenodd"/>
<path transform="matrix(1,0,0,-1,1789.5703,1258.773)" d="M 0 0 C -.215 -11.307 -8.521 -14.52 -10.802 -23.761 C -10.837 -32.078 -11.127 -40.645 -9.721 -47.521 C -4.047 -57.511 5.014 -64.769 16.198 -65.881 C 35.991 -67.847 49.109 -49.228 66.959 -51.84 C 68.783 -56.136 72.237 -58.803 74.518 -62.64 C 71.174 -70.572 72.018 -78.523 77.757 -84.241 C 91.301 -85.818 111.876 -80.363 118.797 -88.561 C 104.379 -109.953 56.324 -99.272 52.919 -74.521 C 34.146 -81.009 18.053 -84.924 -4.32 -81 C -17.578 -72.802 -37.775 -63.716 -42.121 -46.441 C -46.819 -27.767 -38.088 -10.806 -28.081 3.239 C -17.042 3.775 -5.933 8.269 0 0 " fill="#231f20" fill-rule="evenodd"/>
<path transform="matrix(1,0,0,-1,672.8496,1344.0928)" d="M 0 0 C 6.548 6.57 10.712 26.811 1.081 33.48 C -3.192 25 -10.187 7.365 0 0 M -1.081 49.68 C 1.556 52.594 5.961 48.142 10.8 49.68 C 14.047 44.286 20.391 41.99 25.919 38.878 C 27.009 36.729 27.787 34.266 30.239 33.48 C 29.646 28.207 32.284 26.163 33.479 22.68 C 33.702 -7.044 10.033 -24.68 -16.2 -15.122 C -24.634 -5.071 -34.572 6.28 -31.32 22.68 C -29.775 30.472 -24.768 35.125 -21.599 42.12 C -12.16 44.336 -11.782 50.045 -1.081 49.68 " fill="#231f20" fill-rule="evenodd"/>
<path transform="matrix(1,0,0,-1,671.7686,1421.854)" d="M 0 0 C 10.619 5.911 8.093 28.013 -1.079 33.479 L -3.239 33.479 C -8.49 23.776 -10.068 5.445 0 0 M -11.878 48.599 C -5.027 51.11 6.473 48.968 15.122 49.68 C 33.607 39.133 38.25 13.733 27 -5.401 C 18.031 -12.915 4.17 -19.099 -12.959 -15.119 C -20.364 -8.844 -27.101 -1.903 -30.239 8.64 C -31.72 26.679 -23.164 34.686 -18.358 46.441 C -16.979 47.94 -13.261 47.101 -11.878 48.599 " fill="#231f20" fill-rule="evenodd"/>
<path transform="matrix(1,0,0,-1,1858.6875,1376.4937)" d="M 0 0 L 2.162 0 C 2.668 -2.305 .619 -2.057 -1.076 -2.16 C -.87 -1.285 .004 -1.083 0 0 " fill="#231f20" fill-rule="evenodd"/>
<path transform="matrix(1,0,0,-1,1551.9707,1917.5747)" d="M 0 0 C 5.647 -.47 9.462 -2.777 16.199 -2.157 C 16.396 4.254 13.545 10.595 16.199 16.202 C 11.413 17.601 8.39 16.313 2.158 17.279 C .695 12.265 -.118 6.601 0 0 M 24.838 18.36 C 25.52 11.843 26.372 5.493 25.92 -2.157 C 30.09 -2.373 33.878 -2.197 36.717 -1.081 C 37.165 4.28 36.409 17.156 36.717 25.919 C 31.232 24.931 27.954 21.727 24.838 18.36 M 49.681 4.319 C 61.305 11.72 58.51 25.388 62.641 36.721 C 43.722 38.039 48.234 17.161 49.681 4.319 M 49.681 113.401 C 31.193 119.303 21.863 108.229 24.838 92.883 C 33.188 86.66 46.701 84.744 55.077 91.802 C 56.057 101.782 54 108.721 49.681 113.401 M -5.4 104.761 C 2.062 101.936 7.15 101.8 12.96 103.681 C 12.525 112.034 18.678 113.801 20.519 119.883 C 9.005 130.219 -12.682 123.662 -5.4 104.761 M 14.041 184.681 C 7.221 185.168 1.1 187.712 -5.4 187.919 C -25.584 188.569 -49.741 185.401 -66.959 181.441 C -70.488 179.214 -66.168 175.86 -65.883 173.883 C -78.921 135.8 -90.206 95.968 -103.68 58.319 C -105.645 29.966 -122.018 9.796 -126.359 -19.437 C -137.931 -42.429 -143.393 -71.525 -154.441 -95.04 C -157.579 -106.664 -161.389 -117.61 -164.162 -129.599 C -168.642 -134.837 -170.606 -142.594 -173.882 -149.04 C -169.167 -149.792 -169.079 -145.921 -165.24 -145.798 C -147.829 -150.97 -129.95 -146.021 -112.319 -147.96 C -106.633 -134.108 -111.054 -109.134 -106.923 -99.36 C -119.535 -92.575 -134.648 -86.827 -136.081 -71.279 C -139.97 -29.079 -73.999 -26.644 -68.04 -63.721 C -65.289 -80.851 -72.865 -94.157 -91.801 -99.36 C -89.059 -120.92 -94.367 -125.2 -92.883 -147.96 C -78.868 -147.709 -66.428 -148.175 -56.162 -149.04 C -47.908 -141.812 -44.498 -129.739 -38.883 -119.878 C -51.771 -109.934 -55.195 -96.697 -48.604 -77.757 C -31.275 -57.837 11.949 -68.427 11.879 -97.198 C 7.709 -113.546 -4.5 -121.86 -21.604 -125.279 C -25.554 -133.563 -32.567 -138.797 -34.563 -149.04 C -20.72 -148.764 -3.875 -155.386 8.641 -146.878 C 16.867 -116.587 27.994 -89.191 35.641 -58.319 C 9.233 -49.442 -21.787 -45.185 -21.604 -9.721 C -18.355 -6.122 -15.49 -2.149 -9.721 -1.081 C -10.23 8.051 -8.385 15.662 -7.563 20.522 C -24.557 27.334 -35.568 43.567 -27 64.802 C -46.727 63.435 -55.111 73.411 -60.481 86.401 C -57.906 103.386 -39.256 108.431 -21.604 106.919 C -22.957 125.552 -10.656 142.247 10.798 138.243 C 13.285 141.878 16.854 144.427 22.681 144.721 C 34.88 163.503 69.685 173.22 97.199 166.319 C 98.601 171.778 102.016 180.919 100.438 185.761 C 72.432 188.759 42.201 182.681 14.041 184.681 M 133.92 204.122 C 133.81 200.268 129.169 200.953 127.438 198.721 C 128.185 191.136 125.613 186.868 126.356 179.279 C 115.094 137.944 104.811 88.55 93.96 47.522 C 79.305 3.247 62.219 -43.102 49.681 -89.64 C 44.609 -108.448 44.17 -128.408 35.641 -145.798 C 34.52 -178.272 19.416 -202.122 17.279 -224.64 C 10.574 -226.956 10.24 -230.326 5.396 -235.437 C -68.457 -238.892 -145.419 -241.94 -216.002 -235.437 C -218.023 -232.782 -219.77 -229.847 -222.481 -227.878 C -222.046 -220.755 -219.854 -215.385 -217.081 -210.599 C -197.898 -134.187 -179.156 -64.331 -158.761 6.481 C -147.955 42.263 -137.254 78.948 -125.283 114.481 C -113.352 149.884 -104.291 185.981 -88.563 218.162 C -82.586 219.661 -81.408 217.802 -77.761 214.919 C -59.502 221.845 -28.885 216.211 -9.721 219.243 C 35.715 213.878 78.145 215.671 117.717 217.081 C 125.482 215.121 131.094 211.017 133.92 204.122 " fill="#231f20" fill-rule="evenodd"/>
<path transform="matrix(1,0,0,-1,1783.0879,2143.2955)" d="M 0 0 C -8.561 .198 -17.652 -2.769 -27 -3.239 C -32.137 -3.493 -36.975 -.972 -42.117 -1.077 C -51.82 -1.283 -61.787 -5.673 -71.279 -6.478 C -105.715 -9.399 -138.634 -2.72 -169.559 -5.396 C -169.682 -14.273 -172.379 -20.579 -172.797 -29.157 C -161.227 -57.187 -158.291 -93.85 -138.238 -113.396 C -100.27 -111.375 -61.431 -107.93 -23.761 -106.919 C -2.061 -83.263 9.027 -35.302 2.162 1.081 C 1.926 .241 1.258 -.176 0 0 M -124.197 11.883 C -121.521 12.041 -118.955 12.085 -118.797 9.721 C -98.371 8.543 -78.283 13.254 -56.157 15.122 C -43.431 16.198 -29.303 12.44 -20.518 19.441 C -52.914 17.499 -88.285 14.163 -124.197 11.883 M -18.359 18.36 L -4.319 18.36 C -4.447 21.472 -3.73 25.431 -5.4 27 C -7.87 26.314 -11.913 24.86 -14.04 27 C -11.078 22.118 -16.439 21.366 -18.359 18.36 M -157.68 8.64 C -151.865 11.47 -139.864 8.108 -136.076 12.964 C -144.021 14.019 -149.432 17.608 -152.279 23.761 C -144.957 53.882 -133.035 79.4 -129.599 113.401 C -124.404 137.865 -113.857 157.399 -109.076 184.681 C -112.904 184.096 -111.734 188.508 -115.559 187.923 C -127.981 126.352 -148.592 71.314 -157.68 8.64 M -62.639 405 C -65.18 389.544 -70.383 376.747 -72.359 360.721 C -63.188 349.374 -56.526 335.514 -50.761 320.761 C -38.562 291.524 -50.352 254.948 -60.477 233.284 C -37.635 225.522 -22.24 210.322 -6.477 195.481 C -8.846 270.927 -19.01 336.968 -22.68 411.481 C -37.946 411.267 -47.785 405.628 -62.639 405 M -75.599 433.081 C -66.818 435.345 -47.338 440.095 -30.238 442.802 C -18.131 444.718 3.028 444.955 9.721 437.401 C 15.285 431.126 14.273 421.87 19.441 412.563 C 20.145 287.011 29.734 156.357 25.924 32.401 C 35.504 15.486 23.99 -.216 30.239 -17.279 C 27.875 -47.122 27.598 -77.216 15.122 -101.519 C 11.483 -108.603 3.639 -112.196 1.082 -119.878 C -18.939 -133.216 -49.979 -144.835 -88.559 -142.559 C -116.934 -140.884 -141.552 -141.618 -160.918 -129.599 C -172.744 -116.442 -186.446 -93.032 -190.076 -65.878 C -192.862 -45.048 -193.895 -11.725 -184.68 1.081 C -185.154 11.9 -180.698 16.093 -181.437 29.162 C -144.575 163.376 -112.829 301.878 -75.599 433.081 " fill="#231f20" fill-rule="evenodd"/>
<path transform="matrix(1,0,0,-1,1258.21,2136.814)" d="M 0 0 C 6.57 -7.777 10.433 -17.139 7.559 -30.238 C 3.854 -32.186 1.863 -34.176 -1.081 -38.878 C -43.458 -35.529 -85.766 -33.371 -128.521 -33.481 C -171.237 -33.587 -212.071 -32.146 -254.881 -30.238 C -275.521 -29.32 -295.857 -25.369 -315.36 -23.761 C -320.643 -23.321 -324.705 -24.662 -329.401 -23.761 C -335.241 -22.636 -341.824 -17.608 -352.081 -19.441 C -356.451 -17.691 -356.943 -12.063 -362.881 -11.878 C -344.846 .713 -311.55 -3.955 -290.521 3.239 C -193.54 4.922 -81.708 10.314 0 0 " fill="#231f20" fill-rule="evenodd"/>
<path transform="matrix(1,0,0,-1,1763.6514,2153.0113)" d="M 0 0 C 5.651 -8.39 15.28 -12.802 18.36 -23.762 C 6.53 -40.101 -30.463 -35.521 -55.081 -35.645 C -65.725 -30.068 -66.445 -16.762 -64.802 -6.482 C -49.435 2.526 -20.659 -2.303 0 0 " fill="#231f20" fill-rule="evenodd"/>
<path transform="matrix(1,0,0,-1,2201.0479,2279.3726)" d="M 0 0 C -3.779 -4.5 -14.687 -1.876 -18.36 -6.481 C -40.565 -3.256 -63.655 1.012 -82.077 2.158 C -92.817 9.453 -104.941 8.557 -118.798 9.717 C -122.683 15.557 -129.911 18.045 -136.077 21.6 C -136.934 28.213 -127.204 24.245 -124.198 27 C -117.694 26.645 -115.817 28.469 -112.319 27 C -79.712 37.23 -44.714 45.075 -27 70.199 C -23.388 71.108 -21.968 70.915 -18.36 73.438 C -15.386 77.305 -15.1 83.857 -11.878 87.479 C 13.056 80.42 -1.323 21.397 0 0 " fill="#231f20" fill-rule="evenodd"/>
<path transform="matrix(1,0,0,-1,1146.9688,2262.0933)" d="M 0 0 C 5.698 -12.854 .932 -32.861 3.241 -48.599 C 6.032 -67.623 6.594 -96.446 6.48 -117.721 C 6.152 -179.438 8.847 -237.92 10.8 -302.4 C 7.517 -303.798 5.762 -306.721 0 -305.639 C -1.232 -309.81 -1.703 -314.736 -4.319 -317.521 C -29.278 -320.778 -64.799 -321.389 -82.079 -315.359 C -104.741 -312.191 -131.926 -319.992 -147.959 -309.959 C -150.189 -300.699 -149.449 -300.572 -152.279 -293.761 C -106.222 -252.338 -52.473 -218.605 -28.079 -155.521 C -28.997 -148.425 -28.707 -149.326 -28.079 -142.563 C -31.616 -129.436 -40.814 -114.477 -39.959 -103.68 C -64.896 -70.299 -92.476 -39.559 -131.759 -20.521 C -147.305 -16.984 -165.955 -16.559 -171.718 -3.238 C -134.608 3.942 -87.871 3.714 -44.279 3.239 C -27.881 3.059 -12.771 8.525 0 0 " fill="#231f20" fill-rule="evenodd"/>
<path transform="matrix(1,0,0,-1,1922.4082,2438.1334)" d="M 0 0 C 19.455 -31.57 19.156 -89.46 11.883 -136.081 C 9.496 -151.37 5.265 -162.61 -5.396 -169.559 C -12.208 -169.888 -18.189 -169.392 -23.757 -168.481 C -47.51 -138.305 -48.331 -68.427 -36.721 -25.919 C -32.871 -11.843 -28.239 2.026 -19.438 5.401 C -11.686 3.81 -6.957 -.329 0 0 " fill="#231f20" fill-rule="evenodd"/>
<path transform="matrix(1,0,0,-1,2215.088,2609.854)" d="M 0 0 C 3.978 -11.865 6.869 -24.812 14.041 -33.478 C 20.752 -32.889 23.361 -36.396 24.843 -41.04 C 20.549 -43.884 16.471 -45.286 11.883 -45.36 C 2.119 -48.639 -6.771 -58.276 -20.518 -54 C -22.759 -35.868 -10.125 -23.396 -14.04 0 C -9.088 1.433 -4.223 3.116 0 0 " fill="#231f20" fill-rule="evenodd"/>
<path transform="matrix(1,0,0,-1,2015.291,2684.3726)" d="M 0 0 C -23.4 -1.266 -58.315 -2.526 -81 3.239 C -80.903 8.736 -85.764 9.273 -85.32 15.117 C -58.961 16.48 -46.076 31.312 -37.802 50.758 C -44.336 68.56 -28.938 80.284 -18.36 66.96 C -14.98 55.042 -18.079 45.193 -16.203 34.559 C -13.816 21.037 -1.204 13.369 0 0 " fill="#231f20" fill-rule="evenodd"/>
<path transform="matrix(1,0,0,-1,1558.4492,2685.4527)" d="M 0 0 C 2.096 .426 1.577 -4.918 -1.082 -3.239 L -1.082 -1.082 C -.163 -1.279 -.063 -.66 0 0 " fill="#231f20" fill-rule="evenodd"/>
<path transform="matrix(1,0,0,-1,1861.9307,2700.5748)" d="M 0 0 C -4.474 1.042 -14.651 -.804 -20.522 -1.081 C -59.753 -2.905 -124.985 -7.084 -158.761 -2.157 C -174.683 .163 -196.185 -2.813 -210.604 -3.239 C -214.392 -4.131 -217.099 -6.1 -221.401 -6.478 C -226.507 -6.903 -230.414 -6.135 -234.36 -5.396 C -236.958 -7.124 -239.015 -9.387 -241.919 -10.798 C -321.179 -13.693 -399.317 -19.89 -488.162 -23.757 C -473.269 -34.427 -447.759 -34.479 -428.761 -41.04 C -407.188 -40.839 -386.147 -37.617 -369.36 -36.721 C -343.313 -35.323 -317.364 -32.155 -291.604 -30.239 C -272.777 -28.837 -253.793 -30.274 -235.441 -29.157 C -151.335 -24.056 -63.483 -11.716 17.279 -12.96 C 13.096 -9.826 7.225 -1.683 0 0 M -1045.441 -3.239 C -1089.062 2.496 -1133.991 -3.915 -1176.122 -4.319 C -1247.414 -5.001 -1317.674 -9.624 -1389.962 -16.198 C -1404.459 -10.622 -1417.487 -19.552 -1434.241 -16.198 C -1417.083 -29.382 -1390.333 -20.408 -1367.281 -20.519 C -1294.044 -20.874 -1206.202 -20.487 -1128.602 -19.437 C -1100.354 -19.055 -1073.487 -14.528 -1045.441 -12.96 C -1038.498 -12.568 -1031.687 -16.3 -1026 -10.798 C -1034.805 -10.6 -1039.5 -6.298 -1045.441 -3.239 M -1154.521 23.761 C -1175.019 22.096 -1207.578 23.173 -1233.36 21.604 C -1323.661 16.093 -1415.834 20.368 -1503.36 9.721 C -1483.695 -6.372 -1448.046 7.102 -1421.281 0 C -1415.914 2.315 -1410.541 3.011 -1405.081 3.243 C -1354.34 5.374 -1305.824 8.895 -1257.122 11.883 C -1238.263 13.038 -1219.179 11.856 -1199.881 12.96 C -1161.477 15.157 -1124.042 15.728 -1084.32 16.202 C -1097.824 29.188 -1133.06 25.506 -1154.521 23.761 M -32.401 28.081 C -36.404 24.987 -45.733 29.896 -55.081 28.081 C -85.856 22.465 -122.462 27.958 -155.522 25.919 C -222.979 21.762 -287.038 20.104 -351 16.202 C -386.209 14.054 -422.028 16.638 -459 12.96 C -486.481 10.23 -513.512 12.076 -540 9.721 C -535.777 .624 -527.164 -4.083 -518.401 -8.64 C -448.844 -3.639 -370.608 .026 -302.401 5.401 C -267.776 3.563 -227.456 7.265 -187.919 9.721 C -128.378 13.421 -77.173 14.484 -20.522 16.202 C -22.259 22.386 -28.547 24.012 -32.401 28.081 M -1107 83.162 C -1108.881 69.657 -1107.281 59.124 -1103.761 48.604 C -1081.661 27.501 -1053.613 12.349 -1020.602 2.162 C -1035.93 15.351 -1041.269 53.046 -1032.482 79.919 C -1057.72 79.95 -1080.984 87.486 -1107 83.162 M -625.32 88.563 C -630.347 82.067 -644.407 84.608 -649.081 77.761 C -729.598 67.359 -798.724 75.691 -882.36 73.441 C -885.452 72.571 -886.669 69.829 -889.921 69.122 C -915.91 70.792 -954.945 74.479 -982.802 73.441 C -980.172 69.231 -979.506 63.053 -977.401 58.319 C -947.415 56.215 -924.539 62.974 -902.881 58.319 C -876.887 72.079 -833.008 55.705 -808.921 64.802 C -791.567 61.356 -771.036 62.899 -746.281 63.721 C -723.221 64.485 -698.219 63.527 -679.32 64.802 C -656.225 66.357 -637.297 62.741 -619.921 71.279 C -622.22 76.544 -620.523 85.799 -625.32 88.563 M -1467.721 90.721 C -1495.944 90.101 -1524.612 91.072 -1551.962 86.401 C -1546.378 66.784 -1537.458 50.502 -1523.881 38.883 C -1484.613 37.823 -1441.178 39.511 -1412.642 41.04 C -1396.443 41.911 -1379.597 41.726 -1364.041 41.04 C -1278.589 37.283 -1202.577 50.555 -1117.802 44.279 C -1126.58 55.134 -1128.261 76.368 -1126.441 91.802 C -1244.969 96.333 -1361.685 93.054 -1467.721 90.721 M -519.482 93.96 C -537.189 93.401 -555.084 96.394 -572.401 91.802 C -573.462 75.92 -566.853 58.513 -561.602 45.36 C -479.283 44.552 -415.02 46.951 -335.883 47.522 C -329.968 47.009 -329.915 52.356 -324 51.843 C -246.538 40.983 -157.658 51.249 -81 52.919 C -69.253 53.179 -58.249 50.603 -47.522 55.081 C -55.261 72.181 -70.8 81.483 -77.761 99.36 C -227.927 102.704 -379.296 98.385 -519.482 93.96 M 392.04 66.96 C 388.441 66.599 387.246 63.831 382.319 64.802 C 363.094 71.495 360.29 94.614 348.838 109.081 C 342.185 111.415 336.384 108.347 329.396 109.081 C 326.526 69.833 325.647 28.591 292.681 19.441 C 284.356 21.92 276.908 25.269 270 29.162 C 268.019 31.5 267.579 35.38 264.599 36.721 C 261.101 55.542 247.364 64.125 247.319 86.401 C 244.675 66.845 242.829 50.177 235.437 32.401 C 225.264 22.917 218.206 21.437 203.04 19.441 C 189.439 27.8 175.772 36.093 167.396 49.681 C 162.216 68.001 161.763 81.378 163.081 100.441 C 146.79 99.22 136.881 99.475 119.878 101.522 C 110.162 83.294 105.868 59.317 89.64 48.604 C 81.233 43.054 71.618 44.648 61.559 38.883 C 48.85 40.79 45.136 33.706 35.64 32.401 C 27.8 39.331 16.062 48.094 7.559 50.761 C 28.218 27.861 49.667 5.748 89.64 2.162 C 89.538 -1.898 95.05 -.347 96.117 -3.239 C 103.136 -3.34 111.331 -5.854 117.721 -3.239 C 121.03 -3.885 122.001 -6.878 125.279 -7.559 C 152.912 -9.413 179.429 -4.671 206.279 -1.081 C 223.694 1.253 241.778 .909 259.198 3.243 C 280.411 6.077 300.384 14.067 320.757 16.202 C 328.354 16.998 336.142 15.073 343.437 16.202 C 374.528 21.001 398.646 35.965 420.117 52.919 C 418.751 68.177 436.518 72.114 438.478 87.481 C 430.488 74.333 414.536 58.5 392.04 66.96 M 201.96 150.122 C 199.12 148.641 198.972 144.466 196.559 142.563 C 195.06 128.378 189.22 110.519 190.081 96.122 C 191.192 77.476 193.829 55.213 207.36 45.36 C 224.736 59.093 216.8 98.851 218.157 123.122 C 213.469 132.833 211.113 144.874 204.117 152.279 C 204.056 152.938 203.959 153.558 203.04 153.36 C 202.979 151.98 201.656 151.866 201.96 150.122 M 298.081 75.604 C 304.62 95.941 304.163 121.368 300.239 142.563 C 296.622 145.424 295.84 151.119 293.757 155.522 L 290.519 155.522 C 286.599 150.442 283.79 144.251 279.721 139.319 C 277.55 112.017 271.622 84.806 284.04 61.563 C 292.456 59.713 296.108 69.469 298.081 75.604 M -195.481 178.202 C -238.583 178.251 -289.366 177.39 -331.563 177.122 C -337.716 177.082 -343.749 175.069 -349.919 174.96 C -355.101 174.867 -360.009 177.288 -365.04 177.122 C -370.067 176.954 -375.038 175.038 -380.162 174.96 C -389.004 174.827 -397.424 177.351 -406.081 177.122 C -428.01 176.542 -451.037 172.446 -473.041 171.721 C -478.888 171.527 -485.22 173.654 -490.32 173.883 C -501.662 174.388 -512.455 172.991 -522.721 172.802 C -538.589 172.507 -553.854 173.808 -571.32 171.721 C -575.692 154.239 -576.962 138.182 -575.642 120.96 C -459.362 126.923 -321.064 123.53 -195.481 122.04 C -157.008 121.583 -120.335 121.716 -83.162 123.122 C -86.871 142.682 -90.035 156.243 -93.96 174.96 C -127.358 173.936 -153.589 178.154 -195.481 178.202 M -1275.482 171.721 C -1315.235 178.388 -1345.957 168.737 -1393.2 171.721 C -1396.821 171.949 -1398.23 171.716 -1402.921 173.883 C -1428.091 173.021 -1481.311 171.791 -1508.761 181.441 C -1521.352 181.055 -1535.238 180.079 -1551.962 177.122 C -1560.735 155.202 -1560.61 136.986 -1557.36 112.319 C -1463.643 114.812 -1375.69 110.343 -1285.2 113.401 C -1243.288 114.82 -1201.711 117.369 -1156.68 116.64 C -1161.409 123.794 -1162.679 134.402 -1171.802 137.162 C -1174.806 141.354 -1176.482 146.883 -1178.281 152.279 C -1196.209 151.313 -1205.163 156.428 -1223.642 149.04 C -1229.796 155.918 -1242.193 151.339 -1249.561 155.522 C -1248.737 162.958 -1248.737 166.447 -1249.561 173.883 C -1256.498 173.892 -1270.727 174.876 -1275.482 171.721 M -609.122 198.721 C -605.964 200.606 -604.854 204.534 -604.802 209.522 L -608.041 209.522 C -609.159 206.679 -609.333 202.896 -609.122 198.721 M -637.2 162 C -631.853 163.323 -630.675 161.323 -626.401 163.081 C -628.594 176.427 -627.078 199.046 -627.482 210.604 C -630.861 210.823 -635.41 209.874 -637.2 211.681 C -637.504 196.163 -629.479 178.471 -637.2 162 M 178.198 191.162 C 160.483 195.763 145.981 203.585 138.239 218.162 C 140.036 180.703 132.513 146.509 125.279 117.721 C 137.092 114.007 149.515 117.522 164.157 116.64 C 167.058 151.44 200.364 207.532 235.437 173.883 C 241.062 166.259 245.298 154.974 247.319 142.563 C 248.335 136.323 246.006 127.253 251.64 123.122 C 252.866 147.814 265.509 161.091 272.157 180.36 C 289.327 191.325 297.519 171.312 313.198 170.64 C 321.702 160.066 325.165 144.448 328.319 128.522 C 335.716 128.72 342.778 128.579 348.838 127.441 C 345.933 157.271 346.821 177.429 347.757 206.279 C 339.346 199.331 326.597 194.467 314.279 196.563 C 299.255 199.116 297.417 218.698 289.437 227.883 C 284.884 217.534 279.686 204.082 270 199.802 C 251.819 191.769 237.274 203.226 225.721 213.843 C 221.62 222.706 220.417 234.462 216 243 C 212.036 217.183 202.944 192.845 178.198 191.162 M -259.202 243 C -280.788 241.998 -302.52 243.392 -324 245.162 C -399.366 235.274 -472.188 243.919 -546.482 236.522 C -552.612 219.973 -562.669 207.352 -567 189 C -526.138 190.828 -481.087 188.244 -434.162 191.162 C -318.85 198.325 -200.101 197.385 -93.96 194.401 C -95.005 209.466 -89.332 231.979 -88.563 245.162 C -145.472 240.908 -208.301 245.36 -259.202 243 M -1334.881 252.721 C -1339.367 252.364 -1344.331 252.312 -1348.921 252.721 C -1403.068 257.542 -1453.133 260.991 -1514.162 259.202 C -1525.86 239.581 -1537.235 219.639 -1545.482 196.563 C -1527.864 201.345 -1508.3 194.901 -1493.642 193.319 C -1409.061 184.196 -1331.02 193.892 -1250.642 195.481 C -1254.228 213.481 -1255.999 230.771 -1258.2 252.721 C -1284.69 252.804 -1308.582 254.813 -1334.881 252.721 M -584.281 254.883 C -580.311 254.509 -581.017 258.815 -579.962 261.36 L -584.281 261.36 Z M -638.281 231.122 C -636.491 229.312 -631.94 230.261 -628.561 230.04 C -629.332 245.733 -628.548 251.161 -628.561 262.441 C -633.204 263.558 -638.125 264.397 -642.602 265.681 C -640.738 254.584 -640.777 241.585 -638.281 231.122 M -609.122 227.883 C -605.615 227.255 -604.097 228.616 -601.561 228.96 C -601.888 241.233 -600.675 255.046 -602.642 265.681 C -606.59 264.973 -606.784 268.019 -610.2 267.843 C -609.021 251.895 -609.655 243.404 -609.122 227.883 M 216 266.761 C 219.405 265.372 219.405 275.708 216 274.319 C 215.706 269.842 217.415 270.114 216 266.761 M 389.878 89.64 C 393.358 91.397 395.728 90.158 399.599 89.64 C 409.931 98.749 412.757 115.36 415.798 131.761 C 411.645 129.433 408.819 125.78 401.757 126.36 C 394.817 130.219 388.898 135.101 383.396 140.401 C 379.661 181.999 389.707 211.487 389.878 244.081 C 396.251 249.604 404.046 245.698 409.319 241.919 C 413.345 232.845 414.853 209.632 419.04 194.401 C 414.308 183.507 420.165 157.228 420.117 144.721 L 420.117 154.441 C 434.013 200.825 417.292 251.776 398.519 284.04 C 397.138 284.098 397.024 285.425 395.279 285.122 C 372.331 236.259 362.519 137.853 389.878 89.64 M 314.279 227.883 C 335.32 236.765 333.839 285.363 322.919 304.563 C 314.692 282.226 304.857 252.888 314.279 227.883 M -1469.881 307.802 C -1482.086 299.127 -1493.745 289.903 -1500.122 275.401 C -1421.782 274.944 -1338.438 271.195 -1261.441 268.919 C -1261.791 277.335 -1263.458 293.454 -1265.761 303.481 C -1336.704 305.899 -1406.072 301.781 -1469.881 307.802 M 36.721 297 C -15.064 256.799 -17.815 128.637 24.838 76.681 C 37.007 69.407 43.687 56.649 63.721 57.243 C 95.489 73.253 95.581 118.858 99.36 162 C 101.602 187.594 104.806 210.335 101.519 234.36 C 95.854 262.898 87.398 288.638 72.36 307.802 C 61.567 313.339 46.898 308.707 36.721 304.563 C 34.813 302.753 37.679 300.942 36.721 297 M -51.843 165.243 C -49.887 148.487 -41.612 133.919 -39.96 116.64 C -26.104 96.657 -14.655 74.268 2.157 57.243 C -16.546 91.837 -33.381 134.925 -36.721 180.36 C -39.753 221.581 -19.538 260.552 -4.319 294.843 C 1.19 300.489 8.358 304.479 11.878 312.122 C -10.103 296.661 -29.329 269.091 -41.04 239.761 C -43.546 240.104 -45.188 239.59 -46.441 238.681 C -43.893 213.069 -54.334 186.622 -51.843 165.243 M -214.919 313.202 C -237.199 314.253 -260.411 310.175 -281.883 311.04 C -288.721 311.317 -294.829 314.292 -301.319 313.202 C -349.845 312.446 -417.357 307.903 -474.122 307.802 C -478.595 307.793 -482.812 309.388 -487.081 309.96 C -491.845 306.448 -496.068 302.388 -501.122 299.162 C -505.556 288.479 -522.362 276.319 -521.642 267.843 C -379.235 265.241 -228.616 280.271 -74.522 271.081 C -66.146 283.224 -57.384 294.983 -49.681 307.802 C -100.815 312.223 -158.44 310.54 -214.919 313.202 M 253.798 227.883 C 271.886 246.317 269.622 293.335 257.04 316.441 C 247.553 296.525 233.604 247.513 253.798 227.883 M 176.04 233.279 C 185.005 258.034 185.968 297.083 176.04 317.522 C 161.657 300.885 157.649 248.634 176.04 233.279 M -585.36 318.604 C -582.451 304.058 -587.659 292.228 -582.122 280.802 C -576.479 281.044 -571.34 280.784 -567 279.721 C -562.496 293.106 -566.726 305.877 -567 319.681 C -572.708 316.854 -579.753 321.798 -585.36 318.604 M -545.401 304.563 C -541.925 310.083 -535.465 312.622 -533.521 319.681 C -536.131 321.75 -542.199 320.361 -546.482 320.761 C -545.781 315.698 -547.893 307.828 -545.401 304.563 M -613.441 319.681 C -611.589 308.118 -610.332 293.801 -609.122 278.64 C -605.246 278.007 -603.896 279.896 -601.561 280.802 C -606.331 292.435 -602.354 308.654 -605.881 319.681 C -608.175 320.155 -610.695 321.024 -613.441 319.681 M -644.761 281.883 C -638.875 282.366 -635.887 279.958 -629.642 280.802 C -628.176 293.647 -631.134 309.239 -631.802 319.681 C -634.997 321.056 -642.23 318.524 -646.921 320.761 C -647.543 306.452 -646.478 295.782 -644.761 281.883 M 20.519 317.522 C 26.244 316.116 26.028 320.651 31.319 319.681 C 31.122 325.995 39.054 324.185 39.96 329.401 C 31.421 327.498 25.664 322.817 20.519 317.522 M -1301.401 327.243 C -1307.533 327.674 -1313.363 330.288 -1319.761 330.481 C -1329.37 330.772 -1339.519 327.806 -1350 328.319 C -1376.077 329.599 -1404.536 331.69 -1436.401 330.481 C -1439.128 328.887 -1443.023 328.46 -1443.962 325.081 C -1419.627 321.868 -1391.823 325.929 -1367.281 320.761 C -1340.407 323.402 -1307.742 323.104 -1283.041 322.919 C -1278.165 322.884 -1268.547 319.54 -1266.842 326.162 C -1275.77 333.36 -1289.918 326.431 -1301.401 327.243 M -118.802 335.883 C -131.831 335.737 -144.765 331.739 -157.681 332.64 C -162.163 332.956 -166.359 335.413 -170.64 335.883 C -182.456 337.175 -195.253 336.177 -207.36 336.96 C -220.065 337.786 -237.644 337.829 -247.319 336.96 C -284.054 333.668 -311.251 338.085 -339.122 336.96 C -354.56 336.34 -370.037 331.541 -385.563 330.481 C -400.588 329.454 -415.507 332.701 -430.919 330.481 C -435.731 330.354 -436.5 334.261 -441.721 333.721 C -447.152 331.594 -453.078 329.959 -456.842 326.162 C -392.647 328.663 -344.509 329.401 -284.04 329.401 C -221.309 329.401 -165.327 332.011 -109.081 327.243 C -95.753 329.761 -82.472 328.597 -69.122 328.319 C -54.141 328.017 -35.952 320.581 -27 330.481 C -57.458 331.782 -88.084 336.222 -118.802 335.883 M 420.117 293.761 C 439.483 258.064 456.108 211.61 451.437 158.761 C 449.271 134.191 444.696 111.296 438.478 89.64 C 438.539 88.98 438.64 88.36 439.559 88.563 C 461.558 126.853 478.731 187.242 468.721 238.681 C 458.13 260.495 446.81 281.571 430.919 298.081 C 426.739 299.276 427.078 294.263 424.437 297 C 424.454 299.149 427.386 298.376 426.599 301.319 C 401.291 320.291 372.45 341.49 332.64 342.36 C 352.524 332.728 362.206 312.886 368.279 289.441 C 372.616 311.831 410.15 309.858 420.117 293.761 M 248.396 358.563 C 207.624 355.003 150.438 361.512 97.198 349.919 C 77.7 354.827 62.402 339.293 48.599 331.563 C 67.808 334.78 83.101 328.052 98.279 324 C 107.877 314.521 117.114 304.677 124.198 292.681 C 126.844 287.402 125.438 278.081 130.681 275.401 C 132.604 310.79 147.076 363.647 190.081 344.522 C 198.778 335.22 205.866 324.308 211.681 312.122 C 216.589 299.479 212.497 283.786 218.157 275.401 C 219.854 298.96 228.621 344.892 248.396 346.681 C 259.265 347.665 267.052 339.267 279.721 339.122 C 286.26 329.458 290.817 317.821 297 307.802 C 301.931 327.173 308.443 343.345 329.396 345.604 C 304.515 348.938 276.552 353.185 248.396 358.563 M -548.642 339.122 L -533.521 339.122 C -535.449 349.998 -533.31 360.399 -533.521 374.761 C -537.398 377.003 -545.201 375.319 -550.802 375.843 C -550.402 364.86 -548.492 353.329 -548.642 339.122 M -516.241 376.919 C -513.96 363.691 -520.06 350.394 -514.081 339.122 C -507.476 339.372 -501.983 350.056 -493.561 352.081 C -493.295 360.989 -495.461 367.462 -494.642 376.919 C -501.122 379.072 -512.046 377.938 -516.241 376.919 M -585.36 336.96 L -568.081 336.96 C -567.536 351.427 -569.858 366.741 -570.241 376.919 C -574.493 378.399 -579.898 377.749 -587.521 378 C -590.812 366.935 -585.176 345.27 -585.36 336.96 M -610.2 381.243 C -611.477 379.278 -615.832 380.391 -617.761 379.081 C -615.939 366.157 -612.824 350.478 -615.602 339.122 C -613.23 337.892 -611.187 336.335 -606.962 336.96 C -608.029 351.733 -606.111 369.492 -610.2 381.243 M -649.081 379.081 C -653.495 364.601 -647.429 356.638 -649.081 339.122 C -643.766 336.581 -636.451 339.024 -632.881 339.122 C -632.896 353.865 -632.355 369.167 -635.041 381.243 C -636.715 381.806 -646.106 383.753 -650.162 381.243 C -649.318 381.001 -648.905 380.338 -649.081 379.081 M -516.241 396.36 C -510.908 397.868 -503.613 397.415 -496.802 397.441 C -496.362 402.104 -495.508 421.304 -501.122 426.604 C -507.836 427.724 -514.296 428.858 -518.401 429.843 C -521.653 418.887 -517.597 406.271 -516.241 396.36 M -590.761 427.681 C -586.608 417.907 -590.764 407.813 -589.68 397.441 C -583.319 395.464 -576.875 395.684 -571.32 395.279 C -570.032 403.919 -573.458 416.795 -572.401 428.761 C -577.505 431.297 -586.318 429.298 -590.761 427.681 M -618.842 397.441 L -610.2 397.441 C -609.427 405.272 -608.808 418.931 -610.2 429.843 C -629.42 435.978 -620.908 410.806 -618.842 397.441 M -552.962 429.843 C -554.133 416.519 -551.742 409.351 -551.881 395.279 L -534.602 395.279 C -533.092 404.204 -535.792 419.349 -537.842 430.919 C -544.087 431.767 -547.075 429.354 -552.962 429.843 M -650.162 400.681 C -644.814 400.628 -640.635 399.405 -636.122 398.522 L -636.122 430.919 L -649.081 430.919 C -649.927 421.423 -650.34 413.191 -650.162 400.681 M -683.642 459 C -683.394 420.627 -678.256 382.702 -676.081 343.441 C -675.387 330.921 -677.591 317.474 -676.081 304.563 C -675.606 300.489 -673.314 296.754 -672.842 292.681 C -671.979 285.267 -674.193 277.3 -673.921 268.919 C -672.192 215.728 -668.182 163.278 -666.36 112.319 C -651.234 111.591 -633.85 113.163 -623.162 113.401 C -623.56 128.062 -621.277 132.614 -619.921 144.721 C -626.372 146.197 -634.669 143.872 -643.68 144.721 C -650.705 149.396 -652.1 153.392 -658.802 158.761 C -663.618 247.843 -669.511 345.516 -669.602 437.401 C -650.881 450.949 -621.143 445.412 -594 446.04 C -560.377 446.823 -525.419 448.993 -494.642 444.96 C -490.302 440.661 -484.356 437.964 -484.921 428.761 C -480.184 427.312 -478.503 429.486 -475.2 426.604 C -468.58 411.263 -471.705 386.179 -470.881 365.04 C -463.5 366.662 -457.097 369.255 -451.441 372.604 C -452.67 398.069 -452.399 433.261 -456.842 459 C -530.64 463.442 -606.087 464.309 -683.642 459 M -1068.122 477.36 C -1096.174 473.655 -1136.509 479.259 -1171.802 475.202 C -1180.246 439.106 -1169.846 388.31 -1166.401 354.243 C -1164.619 336.621 -1164.737 319.108 -1162.081 303.481 C -1155.013 261.888 -1146.456 221.247 -1142.642 178.202 C -1139.245 174.757 -1140.53 166.632 -1137.241 163.081 C -1139.585 150.416 -1135.279 139.54 -1132.921 126.36 C -1100.114 105.991 -1057.889 112.241 -1014.122 112.319 C -990.965 112.364 -967.019 109.345 -942.842 110.162 C -929.085 110.624 -915.238 109.647 -902.881 109.081 C -904.32 140.366 -907.189 176.757 -909.36 209.522 C -909.905 217.74 -908.374 226.376 -909.36 234.36 C -918.824 310.816 -922.935 390.468 -925.561 476.279 C -972.312 480.067 -1023.877 477.009 -1068.122 477.36 M -758.162 584.279 C -898.409 588.511 -1035.097 565.743 -1136.162 514.081 C -1128.586 514.067 -1122.317 515.355 -1116.721 517.319 C -1088.745 511.993 -1043.372 515.368 -999 515.162 C -971.58 515.034 -944.694 518.612 -925.561 511.919 C -921.909 510.645 -919.202 506.659 -915.842 505.441 C -909.127 503.007 -903.335 504.976 -899.642 501.122 C -892.648 493.822 -893.856 480.445 -893.162 469.802 C -860.234 471.433 -826.611 469.002 -787.32 469.802 C -782.655 465.469 -776.922 462.199 -776.521 453.604 C -785.547 446.616 -811.296 450.374 -819.721 452.522 C -841.586 448.827 -871.991 441.141 -892.081 450.36 C -879.913 336.393 -875.492 224.666 -868.32 108 C -818.829 107.657 -744.253 104.349 -703.081 104.761 C -698.57 109.31 -695.733 110.373 -690.122 112.319 C -690.168 161.279 -692.556 215.288 -697.68 268.919 C -701.767 311.678 -706.083 354.771 -705.241 390.96 C -704.867 407.057 -707.067 422.49 -707.401 437.401 C -707.7 450.712 -704.85 459.563 -713.881 465.481 C -706.507 468.905 -705.116 478.318 -694.441 478.441 C -694.558 485.038 -690.031 486.993 -685.802 489.243 C -649.015 492.657 -612.139 494.947 -571.32 495.721 C -582.425 519.825 -582.122 553.126 -576.721 578.883 C -635.966 579.001 -696.942 589.653 -758.162 584.279 M -659.881 696.604 C -736.018 703.419 -821.949 695.8 -905.041 694.441 C -905.688 689.115 -902.234 687.89 -902.881 682.563 C -813.86 680.695 -708.365 689.989 -614.521 687.96 C -613.116 693.686 -617.649 693.475 -616.68 698.761 C -632.661 695.136 -646.941 701.661 -659.881 696.604 M -588.602 725.761 C -589.814 716.63 -584.75 713.772 -584.281 706.319 C -565.787 711.817 -557.943 732.946 -535.68 731.162 C -535.524 740.364 -530.227 744.425 -530.281 753.843 C -549.242 744.003 -567.123 733.083 -588.602 725.761 M 344.519 710.64 C 340.589 720.747 346.003 744.565 335.878 753.843 C 283.298 754.55 222.755 754.317 158.757 753.843 C 121.821 753.565 78.284 752.366 38.878 746.279 C 88.835 745.589 124.511 742.333 169.559 747.36 C 180.703 742.351 195.873 751.764 199.798 739.802 C 198.532 731.953 187.132 725.194 173.878 725.761 C 161.935 721.143 152.134 714.384 138.239 711.721 C 107.859 684.141 74.958 659.083 57.239 618.843 C 149.186 625.153 258.175 630.114 347.757 633.96 C 349.62 659.971 344.36 679.913 344.519 710.64 M -893.162 729 C -814.091 731.403 -735.983 731.104 -662.041 733.319 C -664.475 739.999 -675.8 746.837 -683.642 751.681 C -718.071 784.934 -755.205 815.476 -794.881 843.481 C -794.942 844.142 -795.041 844.761 -795.962 844.563 C -826.616 804.296 -858.722 765.483 -893.162 729 M 111.239 876.96 C 128.167 875.786 140.585 880.576 153.36 878.04 C 155.167 879.833 154.218 884.382 154.437 887.761 C 142.954 883.696 106.325 896.599 111.239 876.96 M 109.081 932.04 C 111.644 931.368 108.909 925.392 111.239 924.481 C 123.416 927.892 139.442 922.113 151.198 922.319 C 150.728 929.188 150.024 931.663 151.198 936.36 C 134.06 935.679 121.821 935.942 109.081 932.04 M -770.041 874.802 C -755.451 854.829 -732.103 844.194 -712.802 829.441 C -693.169 814.438 -675.116 797.379 -654.482 784.081 C -649.918 778.812 -640.505 767.25 -636.122 768.96 C -654.205 838.714 -673.154 907.606 -694.441 974.162 C -717.523 938.923 -744.526 907.603 -770.041 874.802 M -595.081 745.202 C -571.296 751.298 -556.163 766.042 -534.602 774.36 C -529.225 775.775 -530.007 771.038 -525.962 771.122 C -515.406 813.56 -503.446 843.372 -496.802 887.761 L -506.521 887.761 C -552.107 921.735 -605.612 947.79 -654.482 978.481 C -634.909 900.492 -611.947 825.896 -595.081 745.202 M -922.32 759.243 C -910.226 767.663 -904.46 782.42 -893.162 791.64 C -885.01 804.37 -875.234 815.476 -865.081 826.202 C -855.519 842.919 -843.882 857.562 -831.602 871.563 C -881.158 908.402 -929.856 946.107 -974.162 988.202 C -974.399 989.042 -975.065 989.455 -976.32 989.279 C -963.729 910.081 -941.713 834.808 -922.32 759.243 M 108 1001.162 C 108.527 986.405 110.544 969.587 109.081 951.481 C 123.548 946.96 134.038 952.247 150.117 951.481 C 150.499 969.688 149.515 994.966 150.117 1006.563 C 138.771 1002.845 122.528 1005.886 108 1001.162 M -933.122 1005.481 C -893.399 969.601 -850.472 936.932 -807.842 903.96 C -781.493 937.731 -753.587 969.948 -727.921 1004.401 C -798.317 1003.245 -881.881 1009.296 -933.122 1005.481 M -89.64 1036.802 C -91.213 1036.213 -95.221 1038.063 -95.04 1035.721 C -93.472 1036.31 -89.46 1034.46 -89.64 1036.802 M -653.401 1017.36 C -641.628 1003.935 -619.115 1001.25 -604.802 990.36 C -601.405 989.126 -602.176 992.057 -600.482 992.522 C -599.275 990.013 -600.713 989.631 -598.32 987.122 C -561.485 964.195 -520.919 945.005 -481.68 924.481 C -479.94 944.517 -464.871 957.867 -465.482 976.319 C -465.864 987.935 -474.221 1000.459 -480.602 1010.883 C -492.042 1029.573 -493.736 1053.048 -502.2 1071.36 C -554.504 1055.263 -601.383 1033.743 -653.401 1017.36 M -811.081 1095.122 C -833.275 1113.1 -855.71 1135.007 -878.041 1146.96 C -903.883 1108.362 -934.55 1074.591 -966.602 1042.202 C -891.65 1042.106 -810.563 1044.009 -748.441 1041.122 C -767.503 1058.66 -788.704 1076.994 -811.081 1095.122 M -1019.521 1192.319 C -1008.13 1156.966 -1002.467 1109.285 -994.68 1070.279 C -963.314 1101.556 -939.707 1140.587 -909.36 1172.883 C -950.515 1201.565 -988.688 1233.233 -1029.241 1262.521 C -1029.239 1263.12 -1030.115 1263.746 -1030.32 1262.521 C -1027.907 1237.935 -1020.825 1218.015 -1019.521 1192.319 M -678.241 1055.162 C -670.182 1055.021 -666.942 1059.702 -662.041 1062.721 C -609.987 1073.667 -562.922 1089.603 -518.401 1108.081 C -520.739 1117.261 -524.58 1124.942 -527.041 1134 C -593.358 1183.241 -667.336 1224.826 -737.642 1270.081 C -718.824 1197.457 -697.162 1127.681 -678.241 1055.162 M -787.32 1257.122 C -790.108 1257.029 -788.458 1252.499 -792.721 1253.883 C -806.943 1234.292 -821.597 1214.833 -835.921 1196.64 C -840.913 1190.298 -849.599 1186.181 -851.041 1177.202 C -805.683 1140.481 -763.943 1100.14 -718.2 1063.802 C -737.556 1133.96 -750.357 1209.05 -774.36 1276.561 C -778.012 1269.413 -783.986 1264.588 -787.32 1257.122 M -993.602 1287.36 C -959.337 1257.188 -917.389 1234.692 -883.441 1204.202 C -861.328 1233.206 -836.51 1259.508 -813.241 1287.36 C -880.493 1285.62 -936.104 1290.45 -993.602 1287.36 M -599.401 1341.36 C -599.629 1342.573 -600.601 1343.043 -601.561 1343.521 C -643.865 1329.306 -689.746 1318.667 -732.241 1304.642 C -665.49 1272.032 -609.73 1228.435 -546.482 1192.319 C -562.542 1244.637 -585.404 1289.694 -599.401 1341.36 M -900.721 1380.241 C -915.014 1389.709 -931.104 1397.377 -942.842 1409.401 L -946.081 1409.401 C -946.141 1408.021 -947.465 1407.907 -947.162 1406.162 C -968.003 1394.603 -972.901 1367.099 -995.761 1357.561 C -1001.369 1348.049 -1009.988 1341.547 -1015.2 1331.642 C -956.958 1330.027 -908.96 1327.025 -840.241 1328.401 C -852.513 1349.251 -884.696 1359.545 -900.721 1380.241 M -1044.36 1347.842 C -1023.021 1377.98 -995.539 1401.98 -974.162 1432.081 C -1007.009 1455.034 -1040.388 1477.455 -1075.68 1497.962 C -1065.696 1445.805 -1056.7 1395.413 -1044.36 1347.842 M -757.081 1334.881 C -712.002 1346.456 -670.247 1364.194 -626.401 1373.761 C -634.212 1386.11 -647.756 1392.726 -660.962 1399.68 C -680.337 1414.637 -701.264 1426.81 -721.441 1440.721 C -741.283 1454.401 -761.014 1469.415 -783 1480.68 C -790.429 1490.175 -801.861 1495.661 -811.081 1503.36 C -793.698 1447.815 -776.364 1391.061 -757.081 1334.881 M -849.962 1519.561 C -873.459 1493.02 -896.309 1465.827 -919.081 1438.561 C -877.563 1410.959 -838.162 1375.479 -794.881 1353.241 C -811.657 1409.188 -827.732 1465.829 -846.721 1519.561 Z M -1006.561 1537.921 C -1017.857 1532.656 -1040.047 1538.288 -1053 1534.68 C -1047.99 1531.053 -1044.158 1526.243 -1036.802 1524.962 C -1006.778 1503.863 -979.805 1479.716 -947.162 1461.241 C -926.468 1488.788 -900.461 1511.022 -880.2 1539 C -932.084 1538.771 -970.141 1535.26 -1006.561 1537.921 M -703.081 1582.2 C -744.159 1572.159 -782.158 1559.037 -819.721 1545.482 C -771.521 1510.159 -716.601 1481.562 -669.602 1445.041 C -660.083 1444.12 -657.728 1436.036 -648 1435.32 C -646.657 1431.984 -643.025 1430.938 -640.441 1428.842 C -658.639 1482.645 -679.443 1533.841 -703.081 1582.2 M -1010.881 1645.921 C -1016.112 1642.513 -1017.42 1635.181 -1020.602 1629.721 C -1043.51 1615.19 -1056.72 1590.961 -1073.521 1570.32 C -1011.59 1574.266 -960.954 1573.163 -896.401 1569.241 C -906.555 1578.391 -918.066 1585.753 -928.802 1594.081 C -939.731 1602.558 -951.743 1610.427 -964.441 1616.761 C -974.477 1631.927 -995.333 1636.269 -1007.642 1649.162 L -1009.802 1649.162 C -1011.059 1648.979 -1010.975 1647.453 -1010.881 1645.921 M -1097.281 1625.401 C -1097.068 1620.637 -1099.334 1607.752 -1095.122 1603.802 C -1078.176 1628.978 -1057.739 1650.661 -1040.041 1675.081 C -1067.423 1701.699 -1101.9 1721.222 -1129.68 1747.441 C -1121.48 1703.74 -1106.014 1665.475 -1097.281 1625.401 M -835.921 1585.441 C -798.042 1593.283 -758.485 1608.805 -720.36 1620 C -729.775 1635.427 -748.613 1641.428 -759.241 1655.642 C -792.971 1679.871 -828.018 1702.784 -858.602 1730.162 C -869.449 1735.154 -878.902 1741.54 -886.68 1749.602 L -889.921 1749.602 C -871.633 1695.168 -857.914 1636.17 -835.921 1585.441 M -954.721 1652.401 C -923.462 1635.418 -901.422 1603.461 -869.401 1590.842 C -890.851 1642.504 -906.289 1705.5 -925.561 1760.401 C -943.974 1732.015 -965.839 1707.08 -984.962 1679.401 C -976.997 1668.287 -962.881 1663.321 -954.721 1652.401 M -969.842 1777.68 C -1000.27 1775.619 -1062.831 1775.145 -1105.921 1769.041 C -1075.129 1748.355 -1047.226 1724.776 -1017.36 1703.162 C -996.374 1727.895 -976.482 1753.724 -955.802 1778.761 C -960.781 1778.702 -966.359 1779.24 -969.842 1777.68 M -794.881 1817.642 C -820.099 1806.86 -849.56 1800.318 -873.721 1788.482 C -878.418 1788.5 -883.437 1788.838 -886.68 1787.401 C -879.587 1779.734 -872.38 1772.181 -860.761 1769.041 C -822.665 1738.736 -781.444 1711.558 -740.881 1683.721 C -757.824 1729.417 -773.576 1776.307 -794.881 1817.642 M -1129.68 1811.162 C -1082.856 1812.001 -1044.532 1818.299 -1004.401 1820.881 C -1003.25 1819.874 -1004.064 1816.897 -1001.162 1817.642 C -1021.518 1843.726 -1056.52 1855.162 -1080 1878.122 C -1094.196 1853.438 -1117.78 1838.14 -1129.68 1811.162 M -1208.521 1863 C -1206.187 1871.112 -1206.499 1885.891 -1213.921 1887.842 C -1214.284 1877.401 -1213.603 1868.001 -1208.521 1863 M -1162.081 1899.721 C -1160.389 1887.491 -1157.869 1875.296 -1155.602 1864.081 C -1153.149 1851.961 -1154.571 1846.38 -1149.122 1839.241 C -1131.854 1858.333 -1116.314 1879.154 -1100.521 1899.721 C -1123.163 1917.76 -1144.903 1936.701 -1168.561 1953.721 C -1162.644 1934.75 -1170.538 1916.747 -1162.081 1899.721 M -909.36 1827.36 C -873.848 1833.609 -845.743 1847.263 -810 1853.281 C -827.732 1873.709 -853.407 1886.194 -872.642 1905.122 C -902.149 1920.973 -923.676 1944.807 -950.401 1963.441 C -938.241 1916.561 -921.089 1874.674 -909.36 1827.36 M -1208.521 1934.281 C -1202.513 1942.844 -1200.902 1960.985 -1210.68 1966.68 C -1214.536 1957.981 -1216.162 1940.122 -1208.521 1934.281 M -1054.081 1908.36 C -1038.274 1891.769 -1017.204 1880.438 -1000.081 1865.162 C -989.657 1854.703 -978.921 1844.563 -963.36 1839.241 C -962.673 1834.528 -956.208 1835.596 -955.802 1830.602 C -949.806 1831.197 -948.533 1827.068 -943.921 1826.281 C -957.032 1879.771 -975.072 1928.329 -990.36 1979.642 L -993.602 1979.642 C -1010.443 1952.565 -1033.286 1931.486 -1054.081 1908.36 M -1159.921 2002.32 C -1151.242 1989.76 -1137.133 1982.628 -1128.602 1969.921 C -1124.589 1970.334 -1125.778 1965.544 -1121.041 1966.68 C -1108.619 1951.743 -1093.54 1939.463 -1077.842 1927.802 C -1057.663 1953.343 -1034.257 1975.656 -1014.122 2001.241 C -1068.029 2007.648 -1105.442 2004.634 -1159.921 2002.32 M -873.721 2033.642 C -899.167 2025.606 -927.626 2020.588 -950.401 2009.881 C -911.527 1983.595 -870.341 1950.262 -831.602 1920.241 C -846.264 1956.784 -860.43 1999.299 -873.721 2033.642 M -1213.921 2021.761 C -1206.38 2026.294 -1206.813 2046.054 -1213.921 2050.921 C -1219.665 2043.114 -1220.484 2028.705 -1213.921 2021.761 M -1168.561 2035.802 C -1155.305 2037.85 -1136.705 2039.871 -1128.602 2037.962 C -1110.081 2044.589 -1073.617 2037.995 -1059.482 2045.521 C -1081.406 2060.675 -1097.653 2081.509 -1119.962 2096.281 C -1134.705 2074.667 -1154.386 2057.985 -1168.561 2035.802 M -1213.921 2136.241 C -1218.243 2129.267 -1225.367 2109.959 -1216.081 2102.761 C -1207.222 2105.093 -1201.858 2132.94 -1213.921 2136.241 M -974.162 2037.962 C -945.877 2044.598 -922.841 2056.48 -892.081 2060.642 C -930.771 2094.671 -973.182 2124.978 -1010.881 2160 C -1001.296 2115.749 -984.476 2084.515 -974.162 2037.962 M -1224.721 2170.802 C -1225.683 2164.799 -1222.646 2162.795 -1222.561 2157.842 C -1210.493 2159.468 -1208.004 2151.519 -1197.721 2151.36 C -1191.959 2142.813 -1179.022 2130.042 -1186.921 2117.881 C -1182.248 2116.252 -1187.416 2111.111 -1185.842 2106 C -1190.898 2098.459 -1199.529 2094.491 -1207.441 2089.802 C -1205.873 2089.211 -1201.86 2091.063 -1202.041 2088.721 C -1198.903 2075.715 -1199.406 2067.4 -1193.401 2058.482 C -1179.624 2079.624 -1164.019 2098.938 -1151.281 2121.122 C -1172.254 2136.867 -1192.762 2153.079 -1213.921 2168.642 C -1213.923 2169.725 -1213.047 2169.927 -1212.842 2170.802 C -1217.549 2169.976 -1222.844 2172.138 -1224.721 2170.802 M -1054.081 2183.761 C -1069.005 2164.124 -1082.647 2143.206 -1097.281 2123.281 C -1070.4 2101.562 -1041.611 2081.751 -1014.122 2060.642 C -1025.301 2098.156 -1037.997 2146.135 -1054.081 2183.761 M -1192.32 2203.2 C -1194.436 2195.712 -1197.91 2196.06 -1197.721 2187 C -1194.396 2187.804 -1195.646 2184.036 -1192.32 2184.842 C -1190.856 2183.098 -1187.446 2188.542 -1184.761 2189.162 C -1168.022 2173.14 -1151.442 2156.959 -1130.761 2144.881 C -1114.567 2163.608 -1100.375 2184.337 -1084.32 2203.2 C -1121.766 2203.337 -1154.524 2208.148 -1192.32 2203.2 M -1220.401 2193.482 C -1211.331 2198.281 -1208.914 2220.768 -1218.241 2225.881 C -1226.114 2215.564 -1221.495 2208.597 -1220.401 2193.482 M -948.241 2231.281 C -975.263 2226.593 -995.963 2220.13 -1022.761 2214 C -997.271 2181.892 -957.072 2164.491 -932.041 2131.921 C -920.47 2126.21 -910.103 2119.298 -901.802 2110.32 C -914.377 2149.231 -931.252 2193.186 -948.241 2231.281 M -1219.32 2271.241 C -1209.32 2278.25 -1210.491 2295.294 -1218.241 2303.642 C -1222.317 2297.5 -1228.324 2276.893 -1219.32 2271.241 M -1194.482 2264.761 C -1207.114 2262.995 -1208.496 2249.976 -1221.482 2248.561 C -1234.984 2250.538 -1238.41 2262.593 -1246.32 2270.162 C -1242.433 2257.868 -1243.413 2239.884 -1238.761 2225.881 C -1236.19 2235.19 -1230.517 2241.397 -1221.482 2244.241 C -1208.949 2237.26 -1195.139 2239.704 -1179.36 2241 C -1160.587 2242.545 -1139.732 2239.989 -1119.962 2244.241 C -1146.781 2261.7 -1165.827 2286.936 -1192.32 2304.721 C -1186.805 2287.191 -1189.883 2281.753 -1194.482 2264.761 M -1038.962 2247.482 C -1019.026 2249.209 -994.68 2254.73 -977.401 2262.602 C -1008.664 2284.258 -1036.789 2314.813 -1065.962 2334.962 C -1057.535 2302.888 -1049.805 2276.789 -1038.962 2247.482 M -1230.122 2352.241 C -1226.725 2353.478 -1227.498 2350.545 -1225.802 2350.081 C -1215.257 2357.086 -1218.129 2373.671 -1226.881 2382.482 C -1232.631 2374.897 -1230.464 2364.33 -1230.122 2352.241 M -1169.642 2325.241 C -1137.089 2298.032 -1109.58 2265.781 -1073.521 2242.081 C -1083.959 2292.063 -1102.162 2337.133 -1116.721 2386.802 C -1118.263 2387.059 -1118.542 2388.579 -1119.962 2388.962 C -1137.887 2369.087 -1152.984 2346.385 -1169.642 2325.241 M -1249.561 2285.281 C -1245.526 2305.819 -1237.792 2332.143 -1211.761 2323.081 C -1211.854 2326.59 -1212.317 2329.726 -1213.921 2331.721 C -1238.59 2313.026 -1266.807 2343.865 -1256.041 2373.842 C -1261.033 2381.089 -1268.974 2385.387 -1275.482 2391.122 C -1267.231 2355.346 -1261.455 2319.286 -1249.561 2285.281 M -1126.441 2406.241 C -1120.162 2407.841 -1120.43 2402.895 -1114.561 2404.081 C -1113.528 2406.287 -1112.354 2408.354 -1111.32 2410.561 C -1116.819 2407.979 -1124.216 2412.901 -1126.441 2406.241 M -1248.482 2387.881 C -1245.816 2395.296 -1239.486 2399.047 -1234.441 2404.081 C -1208.828 2407.186 -1201.206 2384.433 -1197.721 2361.962 C -1198.349 2358.268 -1201.333 2356.935 -1200.962 2352.241 C -1199.103 2352.3 -1198.193 2351.41 -1197.721 2350.081 C -1181.29 2368.929 -1166.682 2389.601 -1149.122 2407.32 C -1177.506 2406.568 -1198.795 2410.495 -1220.401 2406.241 C -1224.099 2407.223 -1226.894 2409.108 -1230.122 2410.561 C -1244.116 2409.198 -1252.015 2411.165 -1263.602 2410.561 C -1257.796 2403.765 -1253.63 2395.332 -1248.482 2387.881 M -1086.482 2410.561 C -1043.348 2370.412 -1000.784 2333.635 -964.441 2285.281 C -964.881 2291.322 -969.403 2293.277 -970.921 2298.241 C -985.583 2345.3 -1005.152 2388.737 -1027.081 2431.081 C -1044.58 2416.759 -1062.334 2419.352 -1086.482 2410.561 M -896.401 2208.602 C -874.358 2136.549 -844.137 2078.244 -821.881 2007.721 C -810.485 1985.636 -800.662 1961.98 -791.642 1937.521 C -782.04 1923.363 -778.381 1903.261 -768.962 1888.921 C -751.762 1842.851 -731.817 1801.105 -714.962 1755 C -710.618 1743.122 -704.863 1732.254 -699.842 1720.441 C -690.135 1697.612 -682.014 1674.396 -672.842 1651.32 C -670.313 1644.963 -665.633 1639.554 -663.122 1632.962 C -644.106 1583.066 -623.72 1532.615 -603.721 1485 C -560.14 1381.245 -520.972 1273.896 -480.602 1168.563 C -474.548 1152.765 -469.705 1136.351 -462.241 1121.04 C -455.24 1097.648 -443.888 1077.108 -436.319 1057.319 C -442.591 1049.704 -437.226 1045.517 -435.243 1035.721 C -433.731 1043.209 -425.571 1044.053 -421.202 1048.681 C -394.026 1062.188 -365.124 1078.571 -327.243 1078.919 C -289.441 1079.267 -250.282 1077.275 -209.522 1080 C -264.257 1183.073 -331.576 1269.606 -383.401 1377 C -395.583 1395.657 -405.013 1410.667 -413.64 1432.081 C -435.524 1467.765 -455.515 1502.613 -474.122 1543.32 C -478.536 1543.228 -477.411 1548.67 -480.602 1549.802 C -498.595 1586.887 -518.732 1621.83 -538.921 1656.721 C -547.879 1674.699 -559.187 1696.935 -571.32 1715.041 C -583.205 1737.079 -592.763 1756.006 -606.962 1776.602 C -607.535 1779.627 -608.546 1782.215 -609.122 1785.241 C -632.105 1824.177 -651.665 1866.538 -677.162 1902.962 C -677.852 1907.67 -681.813 1909.107 -681.482 1914.842 C -696.529 1932.469 -704.632 1953.971 -714.962 1974.241 C -725.574 1995.066 -739.288 2012.99 -752.761 2032.561 C -765.822 2051.53 -774.613 2073.472 -787.32 2093.041 C -800.108 2112.73 -811.195 2133.143 -824.041 2152.441 C -837.819 2181.142 -853.732 2207.709 -870.482 2233.441 C -890.861 2278.222 -923.245 2310.996 -941.761 2357.642 C -943.583 2361.199 -942.4 2364.546 -941.761 2368.441 C -958.759 2388.522 -972.356 2412.004 -988.2 2433.241 C -953.02 2362.806 -925.636 2286.839 -896.401 2208.602 M -1113.482 2630.881 C -1126.65 2607.476 -1138.542 2577.041 -1139.401 2547.721 C -1135.962 2542.32 -1136.224 2528.275 -1136.162 2516.401 C -1131.302 2495.34 -1122.653 2478.067 -1113.482 2461.32 C -1101.426 2448.176 -1083.192 2441.21 -1062.721 2436.482 L -1048.68 2436.482 C -1039.157 2441.357 -1032.702 2449.301 -1026 2457 C -1025.473 2465.473 -1022.392 2471.392 -1017.36 2475.36 C -1014.752 2494.426 -1010.962 2511.488 -1009.802 2529.36 C -1011.52 2533.854 -1013.093 2541.48 -1010.881 2546.642 C -1016.119 2583.589 -1033.194 2613.999 -1058.401 2634.122 C -1070.105 2635.016 -1074.116 2643.607 -1087.561 2642.761 C -1087.559 2643.361 -1088.436 2643.987 -1088.642 2642.761 C -1100.489 2642.37 -1105.611 2635.251 -1113.482 2630.881 M -1185.842 1866.241 C -1189.729 1849.61 -1200.474 1839.832 -1218.241 1837.081 C -1247.12 1844.77 -1240.13 1908.461 -1212.842 1909.441 C -1196.648 1910.021 -1192.953 1891.45 -1184.761 1881.36 C -1179.804 1885.968 -1187.244 1894.913 -1184.761 1904.041 C -1190.784 1908.457 -1194.559 1915.124 -1194.482 1925.642 C -1201.513 1921.939 -1205.963 1917.306 -1215 1918.081 C -1238.084 1920.061 -1239.704 1962.334 -1227.962 1982.881 C -1223.174 1985.653 -1214.587 1984.627 -1210.68 1988.281 C -1209.801 1995.64 -1212.904 1999.02 -1213.921 2004.482 C -1218.217 2004.816 -1219.346 2001.986 -1223.642 2002.32 C -1236.964 2013.81 -1244.646 2039.678 -1235.521 2059.561 C -1234.338 2062.141 -1233.525 2068.789 -1229.041 2067.122 C -1238.864 2093.891 -1247.069 2134.088 -1250.642 2164.32 C -1249.047 2169.514 -1256.847 2165.315 -1256.041 2169.721 C -1259.448 2207.316 -1268.611 2242.261 -1275.482 2279.881 C -1277.714 2292.106 -1281.318 2303.407 -1284.122 2315.521 C -1290.922 2344.926 -1294.321 2377.229 -1304.642 2403 C -1302.548 2410.203 -1299.069 2408.126 -1300.32 2414.881 C -1303.868 2418.194 -1315.375 2419.238 -1320.842 2417.041 C -1352.004 2427.28 -1378.121 2442.56 -1394.281 2467.802 C -1399.113 2479.168 -1401.664 2492.817 -1407.241 2503.441 C -1411.603 2534.621 -1408.489 2564.868 -1396.441 2592 C -1391.383 2603.391 -1385.629 2616.179 -1381.32 2622.241 C -1377.523 2627.587 -1368.499 2637.714 -1360.802 2643.842 C -1348.625 2653.532 -1342.343 2656.49 -1328.401 2657.881 C -1302.186 2660.5 -1259.125 2666.204 -1224.721 2666.521 C -1221.289 2666.553 -1217.568 2664.624 -1213.921 2664.36 C -1187.082 2662.422 -1155.408 2665.853 -1130.761 2663.281 C -1124.176 2662.594 -1106.369 2662.33 -1096.2 2660.041 C -1091.632 2659.012 -1088.147 2655.356 -1083.241 2653.561 C -1077.073 2651.307 -1070.06 2652.315 -1064.881 2650.32 C -1056.608 2647.134 -1050.284 2639.87 -1042.2 2640.602 C -1032.192 2629.894 -1018.503 2618.473 -1009.802 2604.962 C -991.272 2576.188 -988.354 2534.061 -994.68 2501.281 C -994.566 2497.076 -987.899 2499.425 -987.122 2495.881 C -986.37 2489.432 -981.936 2486.665 -981.721 2479.68 C -973.23 2470.533 -966.485 2459.637 -961.2 2447.281 C -918.534 2388.428 -890.36 2315.083 -848.881 2255.041 C -837.145 2233.299 -826.042 2210.919 -811.081 2192.401 C -794.222 2151.626 -765.65 2113.297 -746.281 2071.441 C -737.079 2058.321 -728.831 2044.252 -721.441 2029.32 C -701.861 2000.538 -685.521 1962.409 -663.122 1933.2 C -656.703 1910.819 -640.371 1898.35 -632.881 1877.041 C -613.211 1848.111 -597.953 1814.77 -581.041 1783.081 C -542.733 1722.215 -509.625 1653.451 -469.802 1597.32 C -469.83 1587.904 -462.171 1582.115 -457.921 1575.721 C -447.992 1560.781 -441.716 1542.975 -433.081 1527.122 C -426.788 1515.564 -418.188 1504.885 -411.481 1493.642 C -404.684 1482.245 -400.157 1470.634 -394.202 1459.081 C -388.248 1447.537 -377.49 1438.381 -374.761 1424.521 C -361.854 1406.109 -349.722 1386.921 -340.202 1365.122 C -284.66 1284.221 -241.054 1191.388 -186.843 1109.162 C -182.637 1097.525 -176.269 1088.051 -170.64 1077.843 C -139.412 1075.482 -102.792 1077.095 -76.681 1067.04 C -55.529 1054.71 -45.571 1031.19 -31.319 1011.96 C -8.995 937.204 -6.284 857.378 -1.081 775.441 C 26.569 775.512 62.323 776.839 92.878 777.604 C 87.095 855.997 76.575 931.737 86.396 1008.721 C 111.151 1020.081 157.966 1025.517 179.279 1011.96 C 182.232 949.931 183.915 890.596 185.757 834.843 C 185.929 829.753 183.599 825.144 183.599 819.721 C 183.595 807.249 189.053 793.6 185.757 780.843 C 242.38 775.811 313.687 792.211 365.04 775.441 C 374.563 758.294 374.946 729.114 375.838 703.081 C 379.433 598.188 383.392 514.323 374.757 407.162 C 366.653 398.694 357.882 404.543 352.081 411.481 C 353.333 474.425 355.957 546.706 349.919 617.761 C 311.379 615.239 269.077 619.049 226.798 615.604 C 223.044 615.296 219.767 612.765 216 612.36 C 214.462 612.193 212.194 614.408 210.599 614.522 C 207.958 614.707 204.328 612.479 201.96 612.36 C 150.509 609.843 104.862 609.456 52.919 609.122 C 39.463 580.944 42.838 542.245 22.681 521.64 C 16.488 521.569 14.089 525.292 9.721 527.04 C 6.526 599.449 5.163 655.805 3.239 725.761 L -4.319 725.761 C -2.672 685.055 -2.522 643.39 -2.162 590.761 C -1.951 560.554 1.208 529.603 -6.481 504.36 C -11.549 501.833 -17.183 500.546 -23.761 502.202 C -30.011 535.245 -22.667 571.997 -24.843 610.202 C -27.308 653.607 -32.063 703.524 -33.481 748.441 C -34.031 765.888 -32.054 783.079 -33.481 802.441 C -35.274 826.765 -39.498 860.229 -41.04 895.319 C -42.157 920.712 -45.769 940.206 -48.604 965.522 C -51.825 994.342 -52.845 1020.862 -72.36 1032.481 C -78.029 1032.574 -82.011 1034.354 -86.401 1035.721 C -86.489 1031.643 -74.333 1024.778 -78.843 1016.279 C -83.817 1010.197 -90.769 1014.442 -97.202 1014.122 C -119.614 1012.997 -144.04 1007.833 -165.243 1007.64 C -183.401 1007.478 -204.082 1011.955 -224.64 1013.04 C -254.509 1014.614 -279.8 1015.436 -311.04 1019.522 C -330.052 1022.005 -352.617 1015.743 -360.721 1027.081 C -367.888 1026.146 -370.591 1023.341 -378 1024.919 C -379.911 1027.728 -383.146 1034.851 -382.319 1036.802 C -371.888 1043.745 -352.296 1041.943 -342.36 1046.522 C -252.663 1046.825 -175.781 1044.932 -96.122 1036.802 C -99.294 1041.228 -105.354 1039.354 -110.162 1040.04 C -141.991 1044.571 -185.027 1048.553 -228.96 1049.761 C -263.927 1050.72 -298.112 1052.38 -330.481 1049.761 C -338.778 1049.089 -347.226 1050.728 -355.319 1049.761 C -365.555 1048.54 -374.959 1041.891 -385.563 1043.279 C -395.068 1033.708 -403.031 1022.59 -412.563 1013.04 C -435.511 958.593 -453.221 898.901 -468.721 837 C -493.086 753.741 -521.066 671.994 -543.241 589.681 C -549.853 572.884 -560.725 549.22 -559.441 527.04 C -558.815 516.234 -551.591 508.231 -551.881 497.883 C -522.314 492.284 -488.595 502.149 -462.241 488.162 C -453.072 490.153 -439.519 487.758 -433.081 492.481 C -405.269 489.3 -362.883 494.209 -344.522 488.162 C -340.339 487.222 -342.756 492.878 -338.04 491.401 C -328.702 488.971 -326.584 483.675 -317.522 482.761 C -315.527 477.062 -311.813 470.566 -308.883 463.319 C -306.334 457.031 -301.72 447.24 -302.401 442.802 C -303.688 434.408 -313.22 436.922 -313.202 426.604 C -344.048 416.769 -374.089 406.125 -403.919 395.279 C -430.383 400.091 -424.16 446.818 -424.441 470.883 C -434.94 475.146 -438.745 475.071 -450.36 473.04 C -450.989 470.593 -442.886 469.116 -448.203 468.721 C -447.385 462.335 -439.673 462.85 -436.319 459 C -434.122 431.126 -431.895 409.935 -432 380.162 C -347.11 394.137 -259.822 398.575 -183.604 403.919 C -177.78 405.422 -179.077 399.806 -173.883 400.681 C -98.724 403.827 -35.657 409.588 30.239 411.481 C 32.655 410.3 35.648 409.693 37.798 408.243 C 50.59 413.046 65.755 409.342 79.919 409.319 C 112.263 409.271 145.341 416.913 179.279 415.802 C 213.808 414.668 248.55 414.743 281.878 410.401 C 328.618 404.31 371.097 395.499 405 375.843 C 478.652 354.366 511.11 273.704 532.437 200.883 C 530.789 180.413 534.437 160.743 532.437 142.563 C 528.882 110.18 512.214 86.56 506.519 58.319 C 492.724 26.754 460.183 13.939 436.319 -7.559 C 432.638 -10.925 430.646 -6.052 426.599 -6.478 C 415.441 -11.25 405.997 -24.469 394.198 -29.157 C 391.43 -30.261 386.935 -29.435 384.478 -30.239 C 380.958 -31.39 378.984 -34.532 375.838 -35.64 C 363.806 -39.872 350.341 -38.338 338.04 -45.36 C 291.63 -51.231 247.254 -59.911 194.396 -59.396 C 174.331 -67.565 144.03 -62.525 122.04 -68.04 C 76.821 -70.95 26.196 -72.796 -22.681 -75.599 C -34.172 -76.259 -45.844 -75.674 -55.081 -75.599 C -63.136 -75.533 -71.833 -78.604 -79.919 -78.838 C -132.381 -80.345 -178.532 -80.917 -233.279 -83.157 C -247.997 -83.76 -274.812 -92.606 -292.681 -85.319 C -320.484 -88.954 -337.729 -82.477 -372.604 -84.239 C -376.646 -83.962 -378.638 -81.638 -382.319 -81 C -395.675 -80.314 -413.112 -83.712 -419.04 -75.599 C -445.83 -77.379 -462.608 -63.681 -490.32 -64.798 C -499.843 -60.28 -508.346 -54.743 -516.241 -48.599 C -556.225 -41.783 -574.198 -12.955 -596.162 11.883 C -598.261 7.862 -602.606 6.087 -603.721 1.081 C -606.742 2.224 -609.557 7.418 -613.441 4.319 C -616.153 -.642 -609.502 -4.372 -611.281 -11.878 C -628.677 -26.561 -660.043 -45.505 -684.721 -33.478 C -686.707 -36.532 -689.766 -38.514 -691.2 -42.117 C -702.925 -47.993 -724.219 -42.636 -737.642 -48.599 C -834.376 -52.378 -931.236 -61.87 -1040.041 -69.117 C -1043.807 -72.743 -1047.125 -70.106 -1049.761 -74.519 C -1064.173 -80.433 -1089.163 -74.109 -1109.162 -75.599 C -1122.374 -76.583 -1132.756 -79.119 -1149.122 -78.838 C -1183.862 -78.24 -1222.548 -81.343 -1259.281 -78.838 C -1269.468 -78.144 -1279.208 -73.23 -1289.521 -72.36 C -1299.535 -71.513 -1309.326 -75.353 -1319.761 -74.519 C -1335.034 -73.296 -1349.231 -72.967 -1364.041 -75.599 C -1378.362 -64.644 -1403.699 -72.005 -1414.802 -59.396 C -1435.094 -59.528 -1443.474 -47.751 -1464.482 -48.599 C -1488.595 -41.753 -1506.412 -28.608 -1524.962 -16.198 C -1533.494 -5.651 -1540.622 6.302 -1554.122 11.883 C -1558.204 28.318 -1567.701 39.34 -1576.802 50.761 C -1593.22 87.2 -1598.72 141.456 -1586.521 186.843 C -1570.357 235.103 -1547.567 277.181 -1516.32 311.04 C -1505.905 322.325 -1494.448 330.627 -1482.842 341.279 C -1427.678 375.587 -1355.056 391.171 -1277.642 401.761 C -1271.167 402.645 -1263.766 404.833 -1257.122 407.162 C -1234.958 407.677 -1217.199 413.701 -1196.642 413.64 C -1196.073 426.999 -1199.167 465.077 -1197.721 486 C -1193.899 489.739 -1189.173 492.574 -1185.842 496.802 C -1187.262 499.342 -1188.853 501.71 -1188 506.522 C -1139.88 556.321 -1059.148 573.504 -980.642 592.919 C -957.942 593.262 -945.048 603.409 -921.241 602.64 C -936.026 647.038 -945.611 699.2 -957.962 744.122 C -966.813 776.312 -975.206 816.047 -983.881 852.122 C -990.93 881.433 -997.897 911.057 -1003.32 940.681 C -1026.409 1066.786 -1053.877 1191.247 -1077.842 1317.602 C -1083.772 1348.873 -1087.998 1380.408 -1094.041 1411.561 C -1105.594 1471.126 -1121.388 1531.677 -1132.921 1595.162 C -1134.362 1603.099 -1137.142 1610.288 -1139.401 1617.842 C -1142.925 1646.8 -1150.523 1673.002 -1153.441 1699.921 C -1153.824 1701.615 -1155.342 1698.977 -1155.602 1701 C -1158.708 1729.613 -1165.581 1758.885 -1171.802 1786.32 C -1174.669 1798.974 -1181.58 1812.268 -1175.041 1821.962 C -1179.376 1837.593 -1182.01 1852.385 -1185.842 1866.241 " fill="#231f20" fill-rule="evenodd"/>
<path transform="matrix(1,0,0,-1,784.0884,85.89453)" d="M 0 0 C 10.718 -.809 19.015 -13.379 29.162 -18.36 C 33.974 -34.427 45.279 -44.002 48.601 -61.559 C 53.692 -108.609 45.237 -162.778 -2.158 -149.039 C -6.642 -146.683 -8.824 -142.025 -16.198 -142.559 C -31.566 -116.587 -40.526 -90.083 -38.878 -46.439 C -35.402 -37.237 -35.89 -28.061 -31.32 -20.518 C -28.734 -16.253 -22.966 -14.258 -22.678 -8.64 C -13.955 -6.923 -10.65 .213 0 0 " fill="#231f20" fill-rule="evenodd"/>
<path transform="matrix(1,0,0,-1,0,2834.65)" d="M 1996.931 1221.639 L 1999.088 1221.639 L 1999.088 1225.958 L 1996.931 1225.958 Z M 2364.129 2301.636 C 2359.098 2298.21 2359.928 2294.891 2353.327 2295.156 C 2331.732 2296.028 2343.559 2337.017 2340.367 2355.636 C 2336.602 2361.949 2333.991 2369.417 2331.729 2377.237 C 2321.049 2386.892 2315.341 2400.774 2303.651 2410.717 C 2272.086 2437.557 2217.439 2445.082 2169.729 2437.717 C 2124.548 2424.215 2084.359 2405.727 2063.891 2367.517 C 2063.271 2361.043 2064.9 2358.837 2060.651 2356.717 C 2048.048 2358.222 2037.483 2363.575 2039.048 2376.156 C 2032.047 2386.095 2015.365 2381.729 2003.408 2379.395 C 1989.434 2367.093 1981.497 2348.752 1976.408 2327.557 C 1955.195 2329.741 1949.391 2347.337 1940.769 2362.116 C 1927.181 2377.688 1908.113 2387.78 1886.769 2395.596 C 1862.95 2399.337 1847.82 2400.229 1818.729 2398.836 C 1805.145 2393.701 1791.97 2388.155 1776.611 2384.796 C 1726.623 2361.34 1696.301 2318.228 1681.57 2259.517 L 1672.931 2259.517 C 1673.44 2256.124 1671.582 2255.104 1669.688 2254.116 C 1644.507 2249.058 1632.053 2231.273 1615.688 2217.395 C 1611.891 2194.623 1599.322 2177.348 1601.651 2148.275 C 1606.644 2132.392 1618.865 2123.732 1630.809 2114.796 C 1636.14 2116.853 1638.438 2114.273 1643.769 2113.717 C 1646.792 2105.578 1658.279 2105.906 1662.129 2098.596 L 1662.129 2093.197 C 1653.604 2088.861 1641.255 2092.241 1631.891 2087.796 C 1623.242 2083.691 1610.432 2065.911 1608.129 2055.395 C 1605.677 2044.191 1615.978 2038.7 1620.012 2029.476 C 1634.922 2024.418 1654.307 2027.859 1661.048 2016.517 C 1660.09 2014.596 1658.033 2013.77 1658.891 2010.037 C 1650.566 2008.365 1646.045 2007.98 1636.21 2006.796 C 1626.023 1998.492 1612.075 1993.447 1601.651 1984.116 C 1585.26 1969.449 1564.254 1935.018 1561.688 1909.596 C 1560.734 1900.11 1563.389 1890.38 1558.449 1883.677 C 1559.652 1839.14 1573.72 1813.489 1593.012 1786.476 C 1608.072 1780.559 1620.759 1763.282 1639.449 1760.557 C 1652.435 1758.663 1661.54 1768.936 1674.012 1764.877 C 1675.313 1761.752 1667.534 1759.953 1672.931 1759.476 C 1677.826 1759.722 1684.102 1760.755 1689.129 1756.237 C 1691.357 1751.452 1690.936 1748.514 1689.129 1744.356 C 1653.02 1747.954 1624.178 1695.885 1657.809 1676.316 C 1673.194 1673.093 1679.342 1675.497 1697.769 1675.237 C 1700.098 1671.442 1703.464 1668.689 1704.25 1663.356 C 1700.124 1657.4 1692.131 1655.313 1690.21 1647.156 C 1658.842 1622.767 1650.914 1571.425 1658.891 1518.636 C 1666.475 1492.346 1684.896 1473.864 1704.25 1459.237 C 1709.985 1454.9 1715.676 1448.645 1720.449 1446.275 C 1761.178 1426.074 1807.649 1459.494 1843.57 1455.996 C 1847.811 1453.037 1850.707 1448.736 1858.688 1449.517 C 1857.325 1445.68 1862.33 1442.613 1864.088 1438.717 C 1857.958 1424.188 1855.576 1407.331 1865.17 1396.596 C 1871.071 1389.992 1887.027 1384.033 1897.57 1384.715 C 1905.507 1385.229 1912.762 1392.287 1920.25 1391.197 C 1933.83 1389.215 1932.555 1373.175 1924.57 1365.277 C 1925.247 1362.676 1925.458 1358.014 1925.651 1352.318 C 1931.131 1329.001 1955.367 1324.436 1973.17 1313.436 C 1991.183 1291.055 1993.257 1263.206 1996.931 1229.197 C 1998.478 1258.293 1999.409 1297.313 2017.449 1316.679 C 2028.928 1328.996 2059.729 1338.98 2045.529 1365.277 C 2049.582 1366.262 2049.331 1371.553 2052.012 1373.918 C 2077.004 1362.61 2109.281 1378.225 2123.291 1387.958 C 2135.986 1396.777 2152.286 1407.709 2154.611 1421.436 C 2158.21 1442.723 2144.381 1452.193 2142.729 1463.557 C 2148.076 1469.193 2159.177 1464.186 2169.729 1465.717 C 2210.54 1475.279 2224.879 1520.288 2209.688 1562.917 C 2219.522 1571.403 2231.102 1560.109 2244.25 1561.836 C 2263.125 1548.903 2289.835 1560.619 2310.129 1559.677 C 2328.037 1566.969 2346.92 1573.284 2358.729 1586.677 C 2363.334 1607.351 2380.305 1628.884 2382.489 1652.557 C 2383.931 1668.167 2375.968 1676.633 2372.769 1691.436 C 2381.447 1698.7 2388.689 1695.307 2403.012 1695.755 C 2408.689 1697.639 2414.301 1699.587 2422.449 1698.996 C 2430.267 1701.98 2438.651 1704.393 2448.367 1705.476 C 2449.286 1707.801 2451.031 1709.297 2454.85 1708.717 C 2466.864 1721.9 2482.381 1731.586 2494.809 1744.356 C 2502.873 1759.331 2505.527 1779.72 2511.012 1797.275 C 2513.547 1818.266 2515.033 1834.093 2514.25 1858.836 C 2508.045 1880.712 2502.372 1903.118 2487.25 1916.075 C 2476.875 1921.184 2465.01 1924.798 2463.489 1938.755 C 2466.771 1941.594 2471.799 1942.684 2478.611 1941.996 C 2485.233 1949.616 2492.036 1960.752 2491.57 1972.237 C 2490.951 1987.398 2477.961 1991.868 2462.408 1993.836 C 2460.264 2000.332 2453.61 2002.315 2452.688 2010.037 C 2460.229 2009.336 2462.61 2013.792 2469.971 2013.275 C 2482.623 2021.504 2493.952 2031.054 2506.688 2039.197 C 2536.275 2069.646 2560.727 2119.931 2546.651 2180.677 C 2532.888 2225.595 2513.121 2264.509 2465.651 2275.717 C 2451.654 2275.605 2448.645 2280.483 2434.327 2278.956 C 2429.81 2276.275 2425.292 2273.592 2420.291 2271.395 C 2412.82 2272.566 2407.516 2275.904 2405.17 2282.197 C 2408.531 2291.329 2407.67 2296.819 2408.408 2311.356 C 2389.529 2317.799 2376.935 2310.354 2364.129 2301.636 M 2364.129 2338.356 C 2394.53 2352.43 2439.078 2335.727 2428.931 2299.476 C 2437.104 2296.49 2452.561 2300.788 2458.088 2295.156 C 2477.529 2294.882 2502.367 2283.021 2516.408 2271.395 C 2520.262 2268.209 2524.96 2265.054 2527.21 2262.755 C 2540.938 2248.75 2549.086 2224.98 2557.449 2205.517 C 2560.749 2197.842 2565.697 2190.661 2567.17 2183.917 C 2573.805 2153.503 2571.674 2119.01 2566.088 2086.717 C 2559.686 2049.676 2535.832 2024.706 2509.931 2005.717 C 2525.065 1994.276 2533.859 1974.254 2527.21 1951.717 C 2522.974 1941.915 2513.301 1937.545 2505.611 1931.197 C 2520.267 1920.129 2540.188 1910.345 2546.651 1894.476 C 2556.191 1869.44 2560.151 1836.969 2554.21 1808.075 C 2552.914 1784.531 2548.559 1764.049 2536.931 1750.836 C 2532.422 1731.575 2515.802 1720.053 2499.129 1707.636 C 2479.92 1693.332 2465.774 1679.874 2440.809 1673.075 C 2426.848 1673.569 2423.891 1668.7 2410.57 1669.836 C 2411.533 1661.078 2415.659 1655.484 2417.048 1647.156 C 2412.279 1634.357 2413 1621.789 2410.57 1610.436 C 2402.783 1574.071 2372.057 1558.374 2342.529 1541.316 C 2331.139 1539.745 2321.357 1536.568 2311.21 1533.755 C 2292.213 1534.366 2261.459 1540.743 2246.408 1541.316 C 2256.709 1493.609 2231.159 1443.461 2180.529 1444.116 C 2180.851 1429.13 2181.619 1410.843 2175.129 1396.596 C 2170.128 1385.62 2158.096 1373.434 2147.048 1365.277 C 2135.71 1356.902 2117.974 1342.079 2098.449 1342.598 C 2092.104 1342.765 2085.858 1346.078 2079.012 1345.836 C 2074.266 1317.821 2060.739 1298.591 2035.809 1290.756 C 2022.951 1276.852 2021.698 1252.949 2018.529 1234.598 C 2017.427 1231.741 2014.201 1231.008 2013.129 1228.115 C 2016.152 1217.441 2009.613 1202.373 2018.529 1193.557 C 2016.184 1187.264 2013.555 1181.252 2008.809 1177.354 C 1990.246 1171.844 1985.605 1190.468 1986.129 1201.115 C 1984.389 1204.771 1979.488 1205.277 1977.489 1208.679 C 1970.88 1241.721 1973.692 1285.314 1952.651 1306.958 C 1927.655 1315.079 1908.508 1329.059 1902.971 1356.639 C 1890.987 1357.943 1881.113 1356.792 1867.327 1358.796 C 1841.224 1367.251 1829.385 1389.971 1825.21 1420.356 C 1820.815 1420.073 1817.88 1418.324 1814.408 1417.116 C 1784.979 1413.603 1752.941 1418.285 1723.688 1423.596 C 1704.303 1429.649 1687.551 1441.602 1671.85 1454.917 C 1658.863 1465.93 1645.838 1475.701 1636.21 1490.557 C 1611.061 1529.356 1612.893 1613.773 1643.769 1651.476 C 1602.785 1658.681 1605.355 1722.749 1628.651 1747.596 C 1579.837 1754.943 1555.553 1786.821 1536.85 1824.275 C 1535.668 1841.526 1528.496 1857.602 1528.21 1877.197 C 1527.766 1907.405 1542.549 1936.448 1548.729 1961.436 C 1563.678 1985.368 1581.252 2006.673 1607.048 2019.755 C 1595.754 2026.101 1587.014 2035.002 1578.971 2044.596 C 1571.979 2077.271 1593.043 2094.478 1611.367 2108.316 C 1587.738 2117.806 1574.317 2137.502 1568.17 2164.476 C 1566.961 2216.151 1588.248 2246.902 1621.088 2265.996 C 1632.422 2272.586 1641.18 2276.411 1654.57 2277.877 C 1662.586 2319.855 1682.854 2356.137 1709.651 2382.636 C 1729.594 2393.653 1743.643 2410.563 1770.129 2415.037 C 1772.418 2418.506 1778.844 2417.841 1780.931 2421.517 C 1850.131 2442.927 1919.996 2409.691 1955.891 2369.677 C 1964.873 2377.971 1971.068 2389.057 1981.809 2395.596 C 2000.183 2403.846 2028.91 2406.439 2047.688 2395.596 C 2069.238 2453.715 2137.846 2489.768 2214.012 2479.836 C 2243.486 2475.993 2267.295 2463.528 2290.688 2451.755 C 2319.806 2418.592 2352.787 2389.294 2364.129 2338.356 " fill="#231f20" fill-rule="evenodd"/>
<path transform="matrix(1,0,0,-1,623.1694,1508.2554)" d="M 0 0 C .004 -9.359 -5.438 -13.279 -4.32 -23.756 C -1.76 -29.838 7.198 -29.518 16.201 -29.157 C 28.008 -19.6 46.31 8.979 31.32 24.843 C 29.083 24.201 24.225 26.179 23.761 23.762 C 12.079 19.604 8.156 7.687 0 0 M 77.761 -154.437 C 81.973 -156.704 86.071 -159.086 92.88 -158.756 C 108.725 -171.711 120.441 -188.797 124.201 -213.838 C 124.941 -257.176 102.999 -285.895 62.64 -291.599 C 24.489 -297.58 1.738 -280.313 -14.041 -258.117 C -13.678 -252.355 -15.383 -248.664 -16.201 -244.076 C -11.942 -236.289 -13.627 -226.568 -14.041 -216 C -12.351 -210.845 -9.029 -207.329 -7.559 -201.959 C -1.749 -200.175 5.897 -200.9 11.88 -201.959 C 14.251 -218.816 26.451 -226.477 45.36 -221.4 C 50.15 -213.657 56.709 -207.773 56.16 -198.716 C 55.556 -188.762 43.607 -180.593 44.279 -169.559 C 38.848 -163.472 27.709 -163.09 21.599 -157.68 C 24.012 -146.408 26.196 -134.916 30.241 -125.279 C -4.293 -110.685 -43.218 -99.021 -52.919 -62.639 C -54.249 -41.088 -51.174 -26.969 -43.201 -9.716 C -33.759 10.701 -26.501 31 -7.559 42.122 C 15.557 55.697 46.248 58.377 78.84 51.843 C 81.714 50.037 84.17 47.813 89.64 48.6 C 107.464 35.465 129.489 26.53 135 1.082 C 138.439 -.879 138.182 -6.534 141.48 -8.639 C 153.839 -64.336 121.522 -100.125 85.32 -117.716 C 80.868 -130.565 82.252 -140.269 77.761 -154.437 " fill="#231f20" fill-rule="evenodd"/>
<path transform="matrix(1,0,0,-1,889.9307,2491.0523)" d="M 0 0 C -.949 -12.472 .101 -27.167 0 -37.802 C 7.932 -40.82 18.25 -37.503 27 -37.802 C 26.662 -24.887 27.881 -6.877 25.919 1.081 C 17.541 .457 6.614 2.382 0 0 M -28.081 -37.802 C -24.728 -36.383 -24.998 -38.092 -20.521 -37.802 C -17.13 -23.787 -21.34 -12.424 -19.441 1.081 C -23.052 4.152 -28.571 -.637 -31.32 2.158 C -31.381 2.816 -31.482 3.437 -32.401 3.238 C -30.054 -7.813 -34.229 -27.813 -28.081 -37.802 M -129.602 -25.919 C -126.672 -27.313 -123.605 -28.564 -118.802 -28.081 C -118.021 -13.873 -120.806 -6.987 -120.962 4.32 C -124.952 3.63 -131.72 5.717 -133.921 3.238 C -130.832 -7.229 -130.528 -13.943 -129.602 -25.919 M -72.36 4.32 C -71.675 -8.358 -64.854 -19.301 -68.041 -32.4 C -62.301 -33.859 -56.514 -35.275 -48.602 -34.563 C -47.597 -21.766 -51.073 -14.234 -50.761 1.081 C -57.388 3.793 -64.703 5.344 -72.36 4.32 M -99.36 -29.162 C -92.659 -28.578 -89.31 -31.351 -83.162 -31.32 C -85.54 -22.254 -88.578 -10.081 -89.642 3.238 C -94.357 4.715 -91.938 -.945 -96.122 0 L -96.122 4.32 C -100.663 3.015 -100.856 6.064 -103.68 6.478 C -104.955 -4.109 -103.027 -20 -99.36 -29.162 M -1.081 19.438 C 10.235 19.67 15.601 20.338 24.838 19.438 C 26.71 28.134 22.678 37.397 23.759 50.757 C 15.189 49.619 9.593 52.717 -2.162 51.838 C -5.375 40.781 .604 30.305 -1.081 19.438 M -32.401 20.518 C -26.363 20.254 -26.752 19.895 -20.521 19.438 C -19.441 25.497 -22.926 40.069 -21.602 52.919 C -25.884 53.318 -31.95 51.93 -34.561 54 C -35.112 41.568 -34.363 30.437 -32.401 20.518 M -73.441 21.6 C -64.8 20.826 -58.891 20.856 -51.842 20.518 C -54.457 29.781 -54.066 42.056 -54 54 C -60.504 54.33 -69.968 56.412 -79.921 54 C -75.661 45.299 -78.741 29.259 -73.441 21.6 M -106.921 23.757 C -104.08 22.641 -100.294 22.465 -96.122 22.68 C -96.486 34.889 -94.735 43.998 -97.2 55.081 C -99.519 57.08 -105.113 55.807 -109.081 56.158 C -109.929 40.192 -103.964 38.799 -106.921 23.757 M -138.241 57.238 C -140.495 46.578 -137.199 32.453 -133.921 23.757 C -130.254 24.051 -125.165 22.922 -123.122 24.838 C -125.055 35.903 -124.559 44.828 -126.36 57.238 C -129.397 59.734 -134.692 57.572 -138.241 57.238 M -5.401 114.478 C -4.555 100.051 -6.432 84.326 -3.241 70.198 C 5.172 70.866 15.119 69.161 20.518 70.198 C 21.182 84.604 18.429 99.94 17.279 114.478 C 7.504 114.302 3.008 115.093 -5.401 114.478 M -41.041 114.478 C -40.79 101.514 -35.952 86.59 -36.721 73.438 C -33.42 71.341 -28.389 70.972 -22.68 71.279 C -22.254 80.402 -22.148 105.486 -23.761 115.559 C -30.63 116.306 -34.172 113.73 -41.041 114.478 M -77.761 72.36 C -73.241 73.107 -63.765 71.868 -56.162 72.36 C -56.118 84.006 -58.258 102.6 -60.482 115.559 C -67.669 116.117 -72.503 116.033 -79.921 116.64 C -80.921 99.958 -81.608 87.302 -77.761 72.36 M -112.32 75.6 C -109.094 73.428 -102.131 74.988 -97.2 74.518 C -98.026 88.813 -100.466 101.496 -99.36 117.721 L -116.642 117.721 C -115.223 101.821 -111.737 91.455 -112.32 75.6 M -142.561 76.68 C -138.485 78.49 -133.62 75.894 -128.521 75.6 C -129.171 90.431 -132.645 102.437 -132.842 117.721 C -140.164 116.877 -143.011 120.507 -147.962 122.041 C -145.556 106 -144.863 93.691 -142.561 76.68 M -45.36 173.879 C -45.435 161.798 -42.047 148.996 -42.122 133.919 C -37.582 131.317 -29.872 133.55 -24.842 133.919 L -24.842 171.721 C -35.174 171.883 -36.905 176.098 -45.36 173.879 M 7.559 169.559 C 5.069 174.48 -2.303 171.721 -7.561 171.721 C -5.15 157.096 -9.602 149.265 -7.561 133.919 C .991 134.191 8.928 133.849 16.198 132.838 C 14.704 146.826 14.375 161.974 12.959 176.041 C 13.395 171.642 9.299 171.777 7.559 169.559 M -85.32 176.041 C -83.362 161.557 -82.215 146.373 -81 133.919 C -72.947 134.376 -67.37 133.031 -61.561 133.919 C -60.827 150.267 -64.079 157.852 -63.721 174.959 C -70.576 175.175 -80.699 177.104 -85.32 176.041 M -115.561 135 C -112.797 138.564 -105.623 133.541 -103.68 136.081 C -105.924 147.291 -104.238 168.504 -108 181.438 L -122.041 181.438 C -122.135 166.891 -118.797 147.428 -115.561 135 M -157.68 182.518 C -154.51 167.33 -153.854 149.625 -149.041 136.081 C -143.36 137.299 -138.979 133.158 -135 136.081 C -141.003 149.516 -139.313 170.648 -144.721 184.68 C -148.79 180.893 -152.31 186.768 -157.68 182.518 M -8.642 191.158 C -1.898 189.26 7.203 189.721 11.878 185.757 C 8.908 195.75 13.229 213.029 8.64 221.396 C .494 222.613 -8.06 223.418 -16.2 224.64 C -14.985 212.177 -8.31 205.168 -8.642 191.158 M -47.521 192.238 C -41.231 190.969 -33.636 191.004 -27 190.081 C -27.022 198.466 -28.956 213.947 -30.241 224.64 C -36.895 224.78 -40.623 226.02 -48.602 226.797 C -48.674 218.61 -47.219 203.551 -47.521 192.238 M -160.921 225.721 C -158.245 216.074 -160.091 211.514 -158.761 201.959 C -154.437 202.117 -149.361 199.187 -145.802 201.959 C -148.825 209.013 -146.54 221.379 -150.122 227.879 C -155.58 229.017 -156.3 225.418 -160.921 225.721 M -89.642 194.396 C -79.748 195.653 -74.067 192.691 -65.881 192.238 C -64.92 207.563 -67.25 213.073 -66.962 227.879 C -76.144 227.475 -82.29 230.528 -93.962 230.041 C -89.791 218.605 -89.308 208.982 -89.642 194.396 M -123.122 199.797 C -118.393 198.765 -113.478 197.921 -108 197.64 C -109.053 208.468 -109.07 220.328 -111.241 230.041 C -118.481 229.891 -122.957 229.368 -128.521 230.041 C -125.325 221.357 -125.752 209.048 -123.122 199.797 M 29.158 224.64 C 32.97 179.033 35.275 130.957 42.119 84.238 C 45.604 60.451 42.772 35.68 46.439 19.438 C 47.971 12.652 53.295 5.691 46.439 -3.243 C 48.652 -16.221 47.31 -23.361 49.68 -35.64 C 46.679 -38.764 43.231 -41.436 38.878 -43.203 C 39.351 -46.895 41.335 -52.914 38.878 -56.162 C -13.555 -60.381 -75.153 -50.405 -128.521 -51.842 C -135.079 -46.731 -140.017 -35.965 -147.962 -35.64 C -158.759 50.656 -180.321 139.315 -180.36 248.396 C -174.683 251.13 -168.267 248.348 -164.162 246.238 C -110.004 253.969 -45.918 248.81 7.559 240.838 C 11.399 232.08 23.838 231.917 29.158 224.64 " fill="#231f20" fill-rule="evenodd"/>
</g>
</g>
</g>
</svg>
